<?xml version="1.0" encoding="utf-8" ?>
<!-- Generator: Assembly 1.0 - http://assemblyapp.co -->
<svg version="1.1" xmlns="http://www.w3.org/2000/svg" xmlns:xlink="http://www.w3.org/1999/xlink" width="300" height="300" viewBox="0 0 300 300">
	<g id="widget" transform="matrix(1,0,0,1,150,150)">
		<path d="M-58.3033,-33.7066 C-48.8897,-49.8007 -54.6593,-70.1461 -70.7535,-79.5597 C-86.8476,-88.9732 -107.497,-83.5073 -116.91,-67.4132 C-126.324,-51.319 -120.554,-30.67 -104.46,-21.2564 C-88.0623,-12.1465 -67.4132,-17.6125 -58.3033,-33.7066 Z M-58.3033,33.7066 C-67.7168,17.6125 -88.3659,12.1465 -104.46,21.2564 C-120.554,30.67 -126.02,51.319 -116.91,67.4132 C-107.8,83.5073 -86.8476,88.9732 -70.7535,79.5597 C-54.3557,70.1461 -48.8897,49.8007 -58.3033,33.7066 Z M0,67.4132 C-18.5234,67.4132 -33.7066,82.5963 -33.7066,101.12 C-33.7066,119.643 -18.5234,134.826 0,134.826 C18.5234,134.826 33.7066,119.643 33.7066,101.12 C33.7066,82.5963 18.5234,67.4132 0,67.4132 Z M58.3033,33.7066 C48.8897,49.8007 54.6593,70.4498 70.7535,79.8634 C86.8476,89.2769 107.497,83.5073 116.91,67.4132 C126.324,51.319 120.554,30.67 104.46,21.2564 C88.0623,12.1465 67.4132,17.6125 58.3033,33.7066 Z M58.3033,-33.7066 C67.7168,-17.6125 88.3659,-12.1465 104.46,-21.2564 C120.554,-30.67 126.02,-51.319 116.91,-67.4132 C107.497,-83.5073 86.8476,-88.9732 70.7535,-79.5597 C54.3557,-70.1461 48.8897,-49.8007 58.3033,-33.7066 Z M0,-67.4132 C18.5234,-67.4132 33.7066,-82.5963 33.7066,-101.12 C33.7066,-119.643 18.5234,-134.826 0,-134.826 C-18.5234,-134.826 -33.7066,-119.643 -33.7066,-101.12 C-33.7066,-82.5963 -18.5234,-67.4132 0,-67.4132 Z" fill="#f3804b" fill-opacity="1" stroke-width="2.97118" stroke="#ffffff" stroke-linecap="round" stroke-linejoin="round" />
	</g>
</svg>