<?xml version="1.0" encoding="utf-8" ?>
<!-- Generator: Assembly 1.0 - http://assemblyapp.co -->
<svg version="1.1" xmlns="http://www.w3.org/2000/svg" xmlns:xlink="http://www.w3.org/1999/xlink" width="300" height="300" viewBox="0 0 300 300">
	<g id="widget" transform="matrix(1,0,0,1,150,150)">
		<path d="M29.5761,-61.9481 L-32.2474,0 L29.5761,61.8235" fill="none" stroke-width="2" stroke="#9bd872" stroke-linecap="square" stroke-linejoin="miter" />
		<path d="M21.1756,-42.3792 L-21.1756,0.0572812 L21.1756,42.4084" fill="none" stroke-width="2" stroke="#57a32b" stroke-linecap="square" stroke-linejoin="miter" />
		<path d="M-39.9839,-66.8462 L-50.632,-85.1846 C-64.8294,-76.9028 -76.8578,-65.2688 -85.3368,-51.4657 L-66.8013,-40.8176 C-60.0969,-51.6629 -51.0263,-60.5363 -39.9839,-66.8462 Z M-67.9844,-39.2401 L-86.3227,-49.8882 C-94.4074,-36.0851 -99.337,-20.113 -99.7314,-2.9578 L-78.4353,-2.9578 C-78.0409,-16.1693 -74.2943,-28.5921 -67.9844,-39.2401 Z M-2.32124,-77.2971 L-2.32124,-98.5933 C-19.2793,-98.3961 -35.0542,-94.058 -48.8573,-86.3677 L-38.2092,-68.0294 C-27.5611,-73.7478 -15.3356,-77.1 -2.32124,-77.2971 Z M75.9618,-2.9578 L97.258,-2.9578 C96.6664,-20.113 91.9339,-36.0851 83.8493,-49.8882 L65.5109,-39.2401 C71.6237,-28.5921 75.3703,-16.1693 75.9618,-2.9578 Z M35.5386,-67.8322 L46.1867,-86.1705 C32.3836,-93.8608 16.4115,-98.1989 -0.349379,-98.3961 L-0.349379,-77.1 C12.6649,-77.1 24.8905,-73.7478 35.5386,-67.8322 Z M64.1306,-41.0148 L82.6662,-51.6629 C73.99,-65.6631 62.1588,-77.2971 47.9613,-85.3818 L37.3133,-67.0434 C48.3557,-60.5363 57.4263,-51.6629 64.1306,-41.0148 Z M-78.6324,0 C-78.6324,-0.394373 -78.6324,-0.59156 -78.6324,-0.985933 L-99.9286,-0.985933 C-99.9286,-0.59156 -99.9286,-0.394373 -99.9286,0 C-99.9286,16.958 -95.5905,32.9302 -88.0974,46.9304 L-69.5619,36.2823 C-75.2803,25.4371 -78.6324,13.2115 -78.6324,0 Z M39.0879,65.8603 L49.736,84.3959 C64.1306,75.7196 76.159,63.2969 84.4408,48.7051 L66.1025,38.057 C59.3982,49.4938 50.1304,59.156 39.0879,65.8603 Z M-68.5759,38.057 L-86.9143,48.7051 C-78.6324,63.2969 -66.6041,75.7196 -52.2094,84.3959 L-41.5614,65.8603 C-52.801,59.156 -62.0688,49.4938 -68.5759,38.057 Z M97.258,-0.985933 L75.9618,-0.985933 C75.9618,-0.59156 75.9618,-0.394373 75.9618,0 C75.9618,13.2115 72.6097,25.4371 66.8912,36.2823 L85.4268,46.9304 C92.9199,32.9302 97.258,16.958 97.258,4.54747e-13 C97.258,-0.394373 97.258,-0.59156 97.258,-0.985933 Z M-0.349379,77.2971 L-0.349379,98.5933 C17.2002,98.3961 33.7639,93.6636 47.9613,85.3818 L37.3133,67.0434 C26.2708,73.3534 13.4537,77.1 -0.349379,77.2971 Z M-39.9839,66.8462 L-50.632,85.1846 C-36.4345,93.4664 -19.8708,98.1989 -2.32124,98.3961 L-2.32124,77.1 C-16.1243,77.1 -28.9414,73.3534 -39.9839,66.8462 Z" fill="#327130" fill-opacity="1" />
	</g>
</svg>