<?xml version="1.0" encoding="utf-8" ?>
<!-- Generator: Assembly 1.0 - http://assemblyapp.co -->
<svg version="1.1" xmlns="http://www.w3.org/2000/svg" xmlns:xlink="http://www.w3.org/1999/xlink" width="300" height="300" viewBox="0 0 300 300">
	<g id="widget" transform="matrix(1,0,0,1,150,150)">
		<path d="M-27.3586,-133.412 L-19.981,-134.641 L-15.0626,-107.897 L-22.4402,-106.668 L-27.3586,-133.412 Z M-50.1062,-126.649 L-43.036,-129.108 L-33.814,-103.594 L-40.8842,-101.135 L-50.1062,-126.649 Z M-71.3169,-116.197 L-64.8615,-119.886 L-51.3358,-96.2163 L-57.7913,-92.5275 L-71.3169,-116.197 Z M-90.3757,-102.057 L-84.5351,-106.975 L-67.0133,-86.0721 L-72.8539,-80.8463 L-90.3757,-102.057 Z M-106.975,-84.8425 L-102.057,-90.6831 L-81.1537,-73.1613 L-86.0721,-67.3207 L-106.975,-84.8425 Z M-119.886,-64.8615 L-116.197,-71.3169 L-92.5275,-57.7913 L-96.2163,-51.3358 L-119.886,-64.8615 Z M-129.416,-43.036 L-126.956,-50.1062 L-101.442,-40.8842 L-103.901,-33.814 L-129.416,-43.036 Z M-134.949,-19.6736 L-133.719,-27.0512 L-106.975,-22.1328 L-108.205,-14.7552 L-134.949,-19.6736 Z M-136.178,3.6888 L-136.178,-3.3814 L-108.82,-3.3814 L-108.82,3.9962 L-136.178,3.9962 L-136.178,3.6888 Z M-133.412,27.3586 L-134.641,19.981 L-107.897,15.0626 L-106.668,22.4402 L-133.412,27.3586 Z M-126.649,50.1062 L-129.108,43.036 L-103.594,33.814 L-101.135,40.8842 L-126.649,50.1062 Z M-116.197,71.3169 L-119.886,64.8615 L-96.2163,51.3358 L-92.5275,57.7913 L-116.197,71.3169 Z M-102.057,90.3757 L-106.975,84.5351 L-86.0721,67.0133 L-81.1537,72.8539 L-102.057,90.3757 Z M-84.8425,106.975 L-90.6831,102.057 L-73.1613,81.1537 L-67.3207,86.0721 L-84.8425,106.975 Z M-64.8615,119.886 L-71.3169,116.197 L-57.7913,92.5275 L-51.3358,96.2163 L-64.8615,119.886 Z M-43.036,129.416 L-50.1062,126.956 L-40.8842,101.442 L-33.814,103.901 L-43.036,129.416 Z M-19.6736,134.949 L-27.0512,133.719 L-22.1328,106.975 L-14.7552,108.205 L-19.6736,134.949 Z M3.6888,136.178 L-3.3814,136.178 L-3.3814,108.82 L3.9962,108.82 L3.9962,136.178 L3.6888,136.178 Z M27.3586,133.412 L19.981,134.641 L15.0626,107.897 L22.4402,106.668 L27.3586,133.412 Z M50.1062,126.649 L43.036,129.108 L33.814,103.594 L40.8842,101.135 L50.1062,126.649 Z M71.3169,116.197 L64.8615,119.886 L51.3358,96.2163 L57.7913,92.5275 L71.3169,116.197 Z M90.3757,102.057 L84.5351,106.975 L67.0133,86.0721 L72.8539,81.1537 L90.3757,102.057 Z M106.975,84.8425 L102.057,90.6831 L81.1537,73.1613 L86.0721,67.3207 L106.975,84.8425 Z M119.886,64.8615 L116.197,71.3169 L92.5275,57.7913 L96.2163,51.3358 L119.886,64.8615 Z M129.416,43.036 L126.956,50.1062 L101.442,40.8842 L103.901,33.814 L129.416,43.036 Z M134.949,19.6736 L133.719,27.0512 L106.975,22.1328 L108.205,14.7552 L134.949,19.6736 Z M136.178,-3.6888 L136.178,3.3814 L108.82,3.3814 L108.82,-3.9962 L136.178,-3.9962 L136.178,-3.6888 Z M133.412,-27.3586 L134.641,-19.981 L107.897,-15.0626 L106.668,-22.4402 L133.412,-27.3586 Z M126.649,-50.1062 L129.108,-43.036 L103.594,-33.814 L101.135,-40.8842 L126.649,-50.1062 Z M116.197,-71.3169 L119.886,-64.8615 L96.2163,-51.3358 L92.5275,-57.7913 L116.197,-71.3169 Z M102.057,-90.3757 L106.975,-84.5351 L86.0721,-67.0133 L81.1537,-72.8539 L102.057,-90.3757 Z M84.8425,-106.975 L90.6831,-102.057 L73.1613,-81.1537 L67.3207,-86.0721 L84.8425,-106.975 Z M64.8615,-119.886 L71.3169,-116.197 L57.7913,-92.5275 L51.3358,-96.2163 L64.8615,-119.886 Z M43.036,-129.416 L50.1062,-126.956 L40.8842,-101.442 L33.814,-103.901 L43.036,-129.416 Z M19.6736,-134.949 L27.0512,-133.719 L22.1328,-106.975 L14.7552,-108.205 L19.6736,-134.949 Z M-3.6888,-136.178 L3.3814,-136.178 L3.3814,-108.82 L-3.9962,-108.82 L-3.9962,-136.178 L-3.6888,-136.178 Z" fill="#21c5f4" fill-opacity="1" stroke-width="1.77384" stroke="#ffffff" stroke-linecap="round" stroke-linejoin="round" />
		<path d="M0,46.912 L-55.6546,85.5077 L-36.0369,20.8971 L-89.9857,-20.0442 L-22.1766,-21.5369 L0,-85.5077 L22.1766,-21.5369 L89.9857,-20.0442 L36.0369,20.8971 L55.6546,85.5077 Z" fill="#21f4a9" fill-opacity="1" stroke-width="2.61641" stroke="#ffffff" stroke-linecap="round" stroke-linejoin="round" />
	</g>
</svg>