<?xml version="1.0" encoding="utf-8" ?>
<!-- Generator: Assembly 1.0 - http://assemblyapp.co -->
<svg version="1.1" xmlns="http://www.w3.org/2000/svg" xmlns:xlink="http://www.w3.org/1999/xlink" width="300" height="300" viewBox="0 0 300 300">
	<g id="widget" transform="matrix(1,0,0,1,150,150)">
		<path d="M60.2084,-68.6734 C58.603,-59.4579 49.831,-53.2887 40.6155,-54.8941 C31.4001,-56.4995 25.2309,-65.2715 26.8362,-74.487 C28.4416,-83.7024 37.2136,-89.8717 46.4291,-88.2663 C55.6446,-86.6609 61.8138,-77.8889 60.2084,-68.6734 Z M54.5406,-88.8035 L52.8846,-89.7555 L58.4697,-99.471 L60.1258,-98.5189 Z M59.6342,-84.0129 L58.4032,-85.4735 L67.021,-92.7365 L68.252,-91.2759 Z M62.276,-79.5534 L72.8584,-83.4299 L73.5155,-81.6363 L62.933,-77.7598 Z M63.7898,-72.5974 L75.0602,-72.6212 L75.0642,-70.711 L63.7938,-70.6872 Z M62.8983,-65.6468 L73.4969,-61.8145 L72.8473,-60.0182 L62.2487,-63.8505 Z M59.8176,-59.3529 L68.4659,-52.1263 L67.241,-50.6605 L58.5928,-57.8871 Z M54.5338,-54.5691 L60.1573,-44.8758 L58.5051,-43.9173 L52.8815,-53.6105 Z M48.0376,-51.6962 L50.0061,-40.6638 L48.1256,-40.3283 L46.1571,-51.3607 Z M39.0845,-51.6706 L40.9664,-51.3428 L39.0322,-40.2396 L37.1503,-40.5675 Z M32.5626,-54.5083 L34.2191,-53.557 L28.6063,-43.7833 L26.9497,-44.7347 Z M27.2853,-59.2195 L28.5163,-57.7589 L19.9472,-50.5369 L18.7162,-51.9976 Z M24.7337,-63.7286 L14.1512,-59.852 L13.4942,-61.6457 L24.0766,-65.5222 Z M23.0969,-70.5536 L11.8904,-70.531 L11.8865,-72.4412 L23.093,-72.4638 Z M24.0521,-77.6388 L13.4537,-81.4723 L14.1034,-83.2686 L24.7018,-79.4352 Z M27.4234,-83.8755 L18.7751,-91.1021 L20,-92.5679 L28.6482,-85.3413 Z M32.3715,-88.7171 L26.7479,-98.4104 L28.4002,-99.3689 L34.0237,-89.6757 Z M38.9378,-91.4034 L36.9581,-102.499 L38.8386,-102.834 L40.8183,-91.739 Z M48.0125,-102.921 L49.8944,-102.593 L47.9601,-91.4897 L46.0782,-91.8176 Z" fill="#9bd872" fill-opacity="1" />
		<path d="M30.4939,-43.9555 C27.8929,-43.9555 25.492,-43.2219 23.4912,-42.0214 C20.4901,-46.7566 15.2214,-49.9578 9.21912,-49.9578 C1.81629,-49.9578 -4.45277,-45.2227 -6.7203,-38.4868 C-7.98745,-38.9536 -9.32129,-39.2204 -10.7218,-39.2204 C-17.0576,-39.2204 -22.1262,-34.1518 -22.1262,-27.816 C-22.1262,-21.4803 -17.0576,-16.4117 -10.7218,-16.4117 L30.3605,-16.4117 C38.0301,-16.4117 44.1658,-22.5473 44.1658,-30.2169 C44.2325,-37.7531 38.0301,-43.9555 30.4939,-43.9555 Z" fill="#57a32b" fill-opacity="1" />
		<path d="M96.3823,-50.477 C91.6881,-50.477 87.2968,-48.5085 84.2684,-45.48 C81.6185,-55.3226 72.533,-62.6667 61.8576,-62.6667 C49.0623,-62.6667 38.6898,-52.2941 38.6898,-39.4988 C38.6898,-26.7035 49.0623,-16.4067 61.8576,-16.4067 L96.3823,-16.4067 C105.846,-16.4067 113.493,-24.0536 113.493,-33.5176 C113.493,-42.9816 105.846,-50.477 96.3823,-50.477 Z" fill="#327130" fill-opacity="1" />
		<path d="M-122.639,78.2311 L-129.325,78.2311 L-129.325,44.685 L-122.639,44.685 L-122.639,78.2311 Z" fill="#e7253a" fill-opacity="1" />
		<path d="M-92.6836,78.1042 L-114.588,78.1042 L-114.588,56.2002 L-92.6836,56.2002 L-92.6836,78.1042 Z" fill="#f8fbcb" fill-opacity="1" />
		<path d="M-45.1736,60.7379 L-45.1736,60.7379 L-34.2216,60.7379 L-34.2216,56.3571 L-45.1736,56.3571 L-45.1736,56.3571 C-51.2191,56.3571 -56.1256,61.2636 -56.1256,67.3091 C-56.1256,73.3546 -51.2191,78.2611 -45.1736,78.2611 L-45.1736,78.2611 L-34.2216,78.2611 L-34.2216,73.8803 L-45.1736,73.8803 L-45.1736,73.8803 C-48.8097,73.8803 -51.7448,70.9452 -51.7448,67.3091 C-51.7448,63.6731 -48.8097,60.7379 -45.1736,60.7379 Z" fill="#57a32b" fill-opacity="1" />
		<path d="M-23.2047,67.3141 L-23.2047,67.3141 C-23.2047,63.6781 -20.2695,60.7429 -16.6335,60.7429 L-16.6335,60.7429 L-5.68148,60.7429 L-5.68148,56.3621 L-16.6335,56.3621 L-16.6335,56.3621 C-22.679,56.3621 -27.5855,61.2686 -27.5855,67.3141 L-27.5855,67.3141 L-27.5855,78.2661 L-23.2047,78.2661 L-23.2047,67.3141 Z" fill="#327130" fill-opacity="1" />
		<path d="M-5.68648,78.1092 L7.06098,55.8651 L19.9108,78.1092 L-5.68648,78.1092 Z" fill="#e7253a" fill-opacity="1" />
		<path d="M27.3967,67.6158 L38.6948,56.3671 L31.2039,56.3671 L19.9058,67.6158 L30.5611,78.2711 L38.052,78.2711 Z" fill="#f8fbcb" fill-opacity="1" />
		<path d="M-71.6486,67.4942 L-63.8119,71.0904 L-72.6416,60.7847 L-65.5832,64.0589 L-74.6544,53.458 L-83.7525,64.0589 L-76.6941,60.7847 L-85.5506,71.0904 L-77.6871,67.4942 L-86.9193,78.2561 L-74.6544,72.6202 L-62.4164,78.2561 Z" fill="#9bd872" fill-opacity="1" />
		<path d="M69.7586,78.6628 L62.1284,70.053 L66.9488,70.053 L60.5044,62.7837 L64.8866,62.7837 L56.9729,53.8646 L49.0075,62.7837 L53.4155,62.7837 L46.9453,70.053 L51.8173,70.053 L44.1613,78.6628 Z" fill="#57a32b" fill-opacity="1" />
		<path d="M79.3155,60.2457 L79.3155,78.4312 M79.8312,60.7615 C79.8312,61.0463 79.6003,61.2772 79.3155,61.2772 C79.0307,61.2772 78.7997,61.0463 78.7997,60.7615 C78.7997,60.4767 79.0307,60.2458 79.3155,60.2458 C79.6003,60.2458 79.8312,60.4767 79.8312,60.7615 Z M83.8899,60.7615 C83.8899,63.2879 81.8418,65.3359 79.3155,65.3359 C76.7891,65.3359 74.7411,63.2879 74.7411,60.7615 C74.7411,58.2351 76.7891,56.1871 79.3155,56.1871 C81.8418,56.1871 83.8899,58.2351 83.8899,60.7615 Z" fill="none" stroke-width="2" stroke="#f8fbcb" stroke-linecap="square" stroke-linejoin="miter" />
		<path d="M116.793,64.0719 L103.981,76.8576 L91.1955,64.0719" fill="none" stroke-width="2" stroke="#9bd872" stroke-linecap="square" stroke-linejoin="miter" />
		<path d="M130.5,68.6459 L131.871,66.2724 L131.871,66.2724 L131.871,66.2724 C129.901,65.135 129.229,62.6267 130.366,60.6567 C131.503,58.6867 134.012,58.0145 135.982,59.1519 L135.982,59.1519 L137.352,56.7784 L137.352,56.7784 L137.352,56.7784 C134.077,54.8874 129.884,56.0109 127.992,59.2863 C126.101,62.5617 127.225,66.7548 130.5,68.6459 L130.5,68.6459 Z" fill="#327130" fill-opacity="1" />
	</g>
</svg>