<svg xmlns="http://www.w3.org/2000/svg" width="300" height="300" viewBox="0 0 300 300">
    <path d="M210.208 81.327c-1.605 9.215-10.377 15.384-19.593 13.779-9.215-1.605-15.384-10.378-13.779-19.593 1.606-9.215 10.378-15.385 19.593-13.78 9.216 1.606 15.385 10.378 13.78 19.594zm-5.667-20.13l-1.656-.953 5.585-9.715 1.656.952zm5.093 4.79l-1.23-1.46 8.617-7.264 1.231 1.461zm2.642 4.46l10.582-3.877.658 1.794-10.583 3.876zm1.514 6.956l11.27-.024.004 1.91-11.27.024zm-.892 6.95l10.599 3.833-.65 1.796-10.598-3.833zm-3.08 6.294l8.648 7.227-1.225 1.465-8.648-7.226zm-5.284 4.784l5.623 9.693-1.652.959-5.623-9.694zm-6.496 2.873l1.968 11.032-1.88.336-1.969-11.033zm-8.954.025l1.882.328-1.934 11.103-1.882-.328zm-6.521-2.837l1.656.951-5.613 9.774-1.656-.952zm-5.278-4.712l1.231 1.461-8.569 7.222-1.23-1.46zm-2.551-4.509l-10.583 3.877-.657-1.794 10.583-3.876zm-1.637-6.825l-11.207.023-.003-1.91 11.206-.023zm.955-7.085l-10.598-3.833.65-1.797 10.598 3.834zm3.371-6.237l-8.648-7.226L170 57.432l8.648 7.227zm4.948-4.841l-5.623-9.693 1.652-.959 5.624 9.693zm6.567-2.686l-1.98-11.096 1.88-.335 1.98 11.095zm9.074-11.518l1.882.328-1.934 11.103-1.882-.328z" fill="#9bd872"/>
    <path d="M180.494 106.044c-2.601 0-5.002.734-7.003 1.935-3-4.736-8.27-7.937-14.272-7.937-7.403 0-13.672 4.735-15.94 11.471a11.507 11.507 0 0 0-4-.733 11.357 11.357 0 0 0-11.405 11.404 11.357 11.357 0 0 0 11.404 11.404h41.083c7.67 0 13.805-6.135 13.805-13.805.066-7.536-6.136-13.738-13.672-13.738z" fill="#57a32b"/>
    <path d="M246.382 99.523c-4.694 0-9.085 1.968-12.114 4.997-2.65-9.843-11.735-17.187-22.41-17.187-12.796 0-23.168 10.373-23.168 23.168s10.372 23.092 23.168 23.092h34.524c9.464 0 17.111-7.647 17.111-17.11 0-9.465-7.647-16.96-17.11-16.96z" fill="#327130"/>
    <path d="M27.361 228.231h-6.686v-33.546h6.686v33.546z" fill="#e7253a"/>
    <path d="M57.316 228.104H35.412V206.2h21.904v21.904z" fill="#f8fbcb"/>
    <path d="M104.826 210.738h10.952v-4.38h-10.952c-6.045 0-10.952 4.906-10.952 10.951 0 6.046 4.907 10.952 10.952 10.952h10.952v-4.38h-10.952a6.562 6.562 0 0 1-6.57-6.572 6.562 6.562 0 0 1 6.57-6.571z" fill="#57a32b"/>
    <path d="M126.795 217.314a6.562 6.562 0 0 1 6.571-6.571h10.953v-4.38h-10.952c-6.046 0-10.952 4.906-10.952 10.951v10.952h4.38v-10.952z" fill="#327130"/>
    <path d="M144.314 228.11l12.747-22.245 12.85 22.244h-25.597z" fill="#e7253a"/>
    <path d="M177.397 217.616l11.298-11.249h-7.491l-11.298 11.249 10.655 10.655h7.491z" fill="#f8fbcb"/>
    <path d="M78.351 217.494l7.837 3.596-8.83-10.305 7.059 3.274-9.071-10.601-9.099 10.6 7.059-3.273-8.857 10.305 7.864-3.596-9.232 10.762 12.265-5.636 12.238 5.636z" fill="#9bd872"/>
    <path d="M219.759 228.663l-7.63-8.61h4.82l-6.445-7.27h4.383l-7.914-8.918-7.966 8.919h4.408l-6.47 7.269h4.872l-7.656 8.61z" fill="#57a32b"/>
    <path d="M229.315 210.246v18.185m.516-17.67a.516.516 0 1 1-1.031 0 .516.516 0 0 1 1.031 0zm4.059 0a4.574 4.574 0 1 1-9.149 0 4.574 4.574 0 0 1 9.149 0z" fill="none" stroke-width="2" stroke="#f8fbcb" stroke-linecap="square"/>
    <path d="M266.793 214.072l-12.812 12.786-12.785-12.786" fill="none" stroke-width="2" stroke="#9bd872" stroke-linecap="square"/>
    <path d="M280.5 218.646l1.371-2.374a4.106 4.106 0 0 1-1.505-5.615 4.106 4.106 0 0 1 5.616-1.505l1.37-2.374a6.855 6.855 0 0 0-9.36 2.508 6.855 6.855 0 0 0 2.508 9.36z" fill="#327130"/>
</svg>
