<?xml version="1.0" encoding="utf-8" ?>
<!-- Generator: Assembly 1.0 - http://assemblyapp.co -->
<svg version="1.1" xmlns="http://www.w3.org/2000/svg" xmlns:xlink="http://www.w3.org/1999/xlink" width="300" height="300" viewBox="0 0 300 300">
	<g id="widget" transform="matrix(1,0,0,1,150,150)">
		<path d="M59.8678,-67.1408 C57.4184,-58.1129 48.1142,-52.78 39.0864,-55.2294 C30.0585,-57.6787 24.7255,-66.9829 27.1749,-76.0108 C29.6243,-85.0387 38.9284,-90.3716 47.9563,-87.9222 C56.9842,-85.4729 62.3172,-76.1687 59.8678,-67.1408 Z M56.0828,-87.7083 L54.5217,-88.8091 L60.98,-97.9674 L62.5411,-96.8665 Z M60.7123,-82.4678 L59.6214,-84.0358 L68.873,-90.4721 L69.9639,-88.9041 Z M62.9311,-77.7834 L73.8262,-80.6664 L74.3149,-78.8197 L63.4197,-75.9368 Z M63.7962,-70.7174 L75.0206,-69.7005 L74.8482,-67.798 L63.6238,-68.8149 Z M62.2667,-63.8788 L72.4662,-59.0843 L71.6536,-57.3556 L61.4541,-62.1501 Z M58.6181,-57.8962 L66.5622,-49.902 L65.2072,-48.5556 L57.2632,-56.5498 Z M52.9152,-53.6207 L57.6197,-43.4496 L55.886,-42.6477 L51.1815,-52.8188 Z M46.1815,-51.3599 L47.123,-40.1928 L45.2195,-40.0323 L44.278,-51.1994 Z M37.2642,-52.161 L39.1078,-51.6608 L36.1567,-40.7837 L34.3131,-41.2839 Z M31.0322,-55.5887 L32.5938,-54.4885 L26.1026,-45.2749 L24.5409,-46.3751 Z M26.2125,-60.7671 L27.3034,-59.199 L18.1041,-52.7991 L17.0132,-54.3671 Z M24.088,-65.4925 L13.1929,-62.6095 L12.7042,-64.4562 L23.5994,-67.3391 Z M23.0883,-72.4394 L11.9276,-73.4517 L12.1002,-75.3541 L23.2609,-74.3418 Z M24.6937,-79.4062 L14.4945,-84.2018 L15.3073,-85.9305 L25.5065,-81.1349 Z M28.6264,-85.305 L20.6823,-93.2992 L22.0373,-94.6457 L29.9813,-86.6515 Z M34.0004,-89.6691 L29.2958,-99.8402 L31.0295,-100.642 L35.7341,-90.471 Z M40.7867,-91.7376 L39.8398,-102.968 L41.7433,-103.129 L42.6901,-91.8981 Z M50.886,-102.368 L52.7295,-101.868 L49.7784,-90.9906 L47.9349,-91.4908 Z" fill="#9bd872" fill-opacity="1" />
		<path d="M28.2464,-43.9455 C25.6454,-43.9455 23.2445,-43.2119 21.2437,-42.0114 C18.2426,-46.7466 12.9739,-49.9478 6.97159,-49.9478 C-0.43124,-49.9478 -6.7003,-45.2127 -8.96783,-38.4768 C-10.235,-38.9436 -11.5688,-39.2104 -12.9694,-39.2104 C-19.3051,-39.2104 -24.3737,-34.1418 -24.3737,-27.806 C-24.3737,-21.4703 -19.3051,-16.4017 -12.9694,-16.4017 L28.113,-16.4017 C35.7826,-16.4017 41.9183,-22.5373 41.9183,-30.2069 C41.985,-37.7431 35.7826,-43.9455 28.2464,-43.9455 Z" fill="#57a32b" fill-opacity="1" />
		<path d="M99.6063,-50.477 C94.9121,-50.477 90.5209,-48.5085 87.4924,-45.48 C84.8425,-55.3226 75.757,-62.6667 65.0816,-62.6667 C52.2863,-62.6667 41.9138,-52.2941 41.9138,-39.4988 C41.9138,-26.7035 52.2863,-16.4067 65.0816,-16.4067 L99.6063,-16.4067 C109.07,-16.4067 116.717,-24.0536 116.717,-33.5176 C116.717,-42.9816 109.07,-50.477 99.6063,-50.477 Z" fill="#327130" fill-opacity="1" />
		<path d="M-122.639,78.2311 L-129.325,78.2311 L-129.325,44.685 L-122.639,44.685 L-122.639,78.2311 Z" fill="#e7253a" fill-opacity="1" />
		<path d="M-92.6836,78.1042 L-114.588,78.1042 L-114.588,56.2002 L-92.6836,56.2002 L-92.6836,78.1042 Z" fill="#f8fbcb" fill-opacity="1" />
		<path d="M-45.1736,60.7379 L-45.1736,60.7379 L-34.2216,60.7379 L-34.2216,56.3571 L-45.1736,56.3571 L-45.1736,56.3571 C-51.2191,56.3571 -56.1256,61.2636 -56.1256,67.3091 C-56.1256,73.3546 -51.2191,78.2611 -45.1736,78.2611 L-45.1736,78.2611 L-34.2216,78.2611 L-34.2216,73.8803 L-45.1736,73.8803 L-45.1736,73.8803 C-48.8097,73.8803 -51.7448,70.9452 -51.7448,67.3091 C-51.7448,63.6731 -48.8097,60.7379 -45.1736,60.7379 Z" fill="#57a32b" fill-opacity="1" />
		<path d="M-23.2047,67.3141 L-23.2047,67.3141 C-23.2047,63.6781 -20.2695,60.7429 -16.6335,60.7429 L-16.6335,60.7429 L-5.68148,60.7429 L-5.68148,56.3621 L-16.6335,56.3621 L-16.6335,56.3621 C-22.679,56.3621 -27.5855,61.2686 -27.5855,67.3141 L-27.5855,67.3141 L-27.5855,78.2661 L-23.2047,78.2661 L-23.2047,67.3141 Z" fill="#327130" fill-opacity="1" />
		<path d="M-5.68648,78.1092 L7.06098,55.8651 L19.9108,78.1092 L-5.68648,78.1092 Z" fill="#e7253a" fill-opacity="1" />
		<path d="M27.3967,67.6158 L38.6948,56.3671 L31.2039,56.3671 L19.9058,67.6158 L30.5611,78.2711 L38.052,78.2711 Z" fill="#f8fbcb" fill-opacity="1" />
		<path d="M-71.6486,67.4942 L-63.8119,71.0904 L-72.6416,60.7847 L-65.5832,64.0589 L-74.6544,53.458 L-83.7525,64.0589 L-76.6941,60.7847 L-85.5506,71.0904 L-77.6871,67.4942 L-86.9193,78.2561 L-74.6544,72.6202 L-62.4164,78.2561 Z" fill="#9bd872" fill-opacity="1" />
		<path d="M69.7586,78.6628 L62.1284,70.053 L66.9488,70.053 L60.5044,62.7837 L64.8866,62.7837 L56.9729,53.8646 L49.0075,62.7837 L53.4155,62.7837 L46.9453,70.053 L51.8173,70.053 L44.1613,78.6628 Z" fill="#57a32b" fill-opacity="1" />
		<path d="M79.3155,60.2457 L79.3155,78.4312 M79.8312,60.7615 C79.8312,61.0463 79.6003,61.2772 79.3155,61.2772 C79.0307,61.2772 78.7997,61.0463 78.7997,60.7615 C78.7997,60.4767 79.0307,60.2458 79.3155,60.2458 C79.6003,60.2458 79.8312,60.4767 79.8312,60.7615 Z M83.8899,60.7615 C83.8899,63.2879 81.8418,65.3359 79.3155,65.3359 C76.7891,65.3359 74.7411,63.2879 74.7411,60.7615 C74.7411,58.2351 76.7891,56.1871 79.3155,56.1871 C81.8418,56.1871 83.8899,58.2351 83.8899,60.7615 Z" fill="none" stroke-width="2" stroke="#f8fbcb" stroke-linecap="square" stroke-linejoin="miter" />
		<path d="M116.793,64.0719 L103.981,76.8576 L91.1955,64.0719" fill="none" stroke-width="2" stroke="#9bd872" stroke-linecap="square" stroke-linejoin="miter" />
		<path d="M134.429,61.9731 L135.359,61.0433 L135.359,61.0433 L135.359,61.0433 C134.587,60.2716 134.587,59.0258 135.359,58.2541 C136.13,57.4825 137.376,57.4825 138.148,58.2541 L138.148,58.2541 L139.078,57.3244 L139.078,57.3244 L139.078,57.3244 C137.795,56.0414 135.712,56.0414 134.429,57.3244 C133.146,58.6074 133.146,60.69 134.429,61.9731 L134.429,61.9731 Z" fill="#327130" fill-opacity="1" />
	</g>
</svg>