<svg xmlns="http://www.w3.org/2000/svg" width="300" height="300" viewBox="0 0 300 300">
    <path d="M209.868 82.86c-2.45 9.027-11.754 14.36-20.782 11.91-9.028-2.449-14.36-11.753-11.911-20.78 2.45-9.029 11.753-14.362 20.781-11.912 9.028 2.45 14.361 11.753 11.912 20.781zm-3.785-20.568l-1.561-1.101 6.458-9.158 1.561 1.1zm4.63 5.24l-1.092-1.568 9.252-6.436 1.09 1.568zm2.218 4.685l10.895-2.883.489 1.846-10.895 2.883zm.865 7.066l11.225 1.016-.173 1.903-11.224-1.017zm-1.53 6.838l10.2 4.795-.812 1.728-10.2-4.794zm-3.648 5.983l7.944 7.994-1.355 1.346-7.944-7.994zm-5.703 4.275l4.705 10.171-1.734.802-4.704-10.17zm-6.733 2.261l.941 11.167-1.903.16-.942-11.166zm-8.918-.801l1.844.5-2.951 10.877-1.844-.5zm-6.232-3.428l1.562 1.1-6.491 9.214-1.562-1.1zm-4.82-5.178l1.091 1.568-9.199 6.4-1.09-1.568zm-2.124-4.726l-10.895 2.883-.489-1.846L173.6 82.66zm-1-6.946l-11.16-1.013.172-1.902 11.16 1.012zm1.606-6.967l-10.2-4.796.813-1.728 10.2 4.795zm3.932-5.899l-7.944-7.994 1.355-1.347 7.944 7.995zM184 60.331l-4.704-10.171 1.734-.802 4.704 10.171zm6.787-2.069l-.947-11.23 1.903-.161.947 11.23zm10.099-10.63l1.844.5-2.952 10.877-1.843-.5z" fill="#9bd872"/>
    <path d="M178.246 106.054c-2.6 0-5.002.734-7.002 1.935-3.001-4.736-8.27-7.937-14.272-7.937-7.403 0-13.672 4.735-15.94 11.471a11.507 11.507 0 0 0-4.001-.733 11.357 11.357 0 0 0-11.405 11.404 11.357 11.357 0 0 0 11.405 11.404h41.082c7.67 0 13.805-6.135 13.805-13.805.067-7.536-6.135-13.739-13.672-13.739z" fill="#57a32b"/>
    <path d="M249.606 99.523c-4.694 0-9.085 1.968-12.114 4.997-2.65-9.843-11.735-17.187-22.41-17.187-12.796 0-23.168 10.373-23.168 23.168s10.372 23.092 23.168 23.092h34.524c9.464 0 17.111-7.647 17.111-17.11 0-9.465-7.647-16.96-17.11-16.96z" fill="#327130"/>
    <path d="M27.361 228.231h-6.686v-33.546h6.686v33.546z" fill="#e7253a"/>
    <path d="M57.316 228.104H35.412V206.2h21.904v21.904z" fill="#f8fbcb"/>
    <path d="M104.826 210.738h10.952v-4.38h-10.952c-6.045 0-10.952 4.906-10.952 10.951 0 6.046 4.907 10.952 10.952 10.952h10.952v-4.38h-10.952a6.562 6.562 0 0 1-6.57-6.572 6.562 6.562 0 0 1 6.57-6.571z" fill="#57a32b"/>
    <path d="M126.795 217.314a6.562 6.562 0 0 1 6.571-6.571h10.953v-4.38h-10.952c-6.046 0-10.952 4.906-10.952 10.951v10.952h4.38v-10.952z" fill="#327130"/>
    <path d="M144.314 228.11l12.747-22.245 12.85 22.244h-25.597z" fill="#e7253a"/>
    <path d="M177.397 217.616l11.298-11.249h-7.491l-11.298 11.249 10.655 10.655h7.491z" fill="#f8fbcb"/>
    <path d="M78.351 217.494l7.837 3.596-8.83-10.305 7.059 3.274-9.071-10.601-9.099 10.6 7.059-3.273-8.857 10.305 7.864-3.596-9.232 10.762 12.265-5.636 12.238 5.636z" fill="#9bd872"/>
    <path d="M219.759 228.663l-7.63-8.61h4.82l-6.445-7.27h4.383l-7.914-8.918-7.966 8.919h4.408l-6.47 7.269h4.872l-7.656 8.61z" fill="#57a32b"/>
    <path d="M229.315 210.246v18.185m.516-17.67a.516.516 0 1 1-1.031 0 .516.516 0 0 1 1.031 0zm4.059 0a4.574 4.574 0 1 1-9.149 0 4.574 4.574 0 0 1 9.149 0z" fill="none" stroke-width="2" stroke="#f8fbcb" stroke-linecap="square"/>
    <path d="M266.793 214.072l-12.812 12.786-12.785-12.786" fill="none" stroke-width="2" stroke="#9bd872" stroke-linecap="square"/>
    <path d="M284.429 211.973l.93-.93a1.969 1.969 0 0 1 0-2.789 1.97 1.97 0 0 1 2.789 0l.93-.93a3.288 3.288 0 0 0-4.649 4.649z" fill="#327130"/>
</svg>
