<svg xmlns="http://www.w3.org/2000/svg" width="300" height="300" viewBox="0 0 300 300">
    <path d="M208.667 86.008c-4.183 8.367-14.357 11.758-22.724 7.575-8.366-4.184-11.758-14.358-7.574-22.724 4.183-8.367 14.357-11.758 22.724-7.575 8.366 4.183 11.758 14.357 7.574 22.724zm.35-20.91l-1.313-1.387 8.139-7.704 1.313 1.388zm3.504 6.051l-.76-1.752 10.34-4.484.76 1.753zm1.25 5.03l11.25-.675.114 1.907-11.25.675zm-.547 7.098l10.803 3.213-.544 1.83-10.803-3.212zm-2.849 6.402l9.052 6.714-1.138 1.534-9.052-6.713zm-4.758 5.145l6.21 9.405-1.594 1.052-6.21-9.405zm-6.435 3.065l2.605 10.9-1.858.444-2.605-10.9zm-7.047.887l-1.282 11.134-1.897-.219 1.281-11.133zm-8.584-2.545l1.709.854-5.04 10.08-1.709-.854zm-5.432-4.59l1.313 1.386-8.182 7.75-1.314-1.386zm-3.703-6.029l.76 1.753-10.282 4.458-.76-1.753zm-1.15-5.051l-11.25.675-.114-1.907 11.25-.675zm.392-7.008l-10.742-3.196.545-1.83 10.741 3.195zm2.949-6.513l-9.052-6.714 1.138-1.535 9.052 6.715zm5.02-5.006l-6.21-9.405 1.594-1.053 6.21 9.405zm6.13-3.218l-2.605-10.899 1.858-.444 2.604 10.9zm7.06-.688l1.289-11.196 1.898.218-1.29 11.197zm12-8.427l1.708.854-5.04 10.08-1.709-.854z" fill="#9bd872"/>
    <path d="M176.586 106.065c-2.601 0-5.002.733-7.003 1.934-3-4.736-8.27-7.937-14.272-7.937-7.403 0-13.672 4.735-15.94 11.471a11.507 11.507 0 0 0-4-.733 11.357 11.357 0 0 0-11.405 11.404 11.357 11.357 0 0 0 11.404 11.404h41.083c7.67 0 13.805-6.135 13.805-13.805.067-7.536-6.136-13.738-13.672-13.738z" fill="#57a32b"/>
    <path d="M251.849 99.533c-4.694 0-9.086 1.968-12.114 4.997-2.65-9.843-11.735-17.187-22.41-17.187-12.796 0-23.169 10.373-23.169 23.168 0 12.796 10.373 23.092 23.168 23.092h34.525c9.464 0 17.111-7.647 17.111-17.11 0-9.465-7.647-16.96-17.111-16.96z" fill="#327130"/>
    <path d="M27.361 228.231h-6.686v-33.546h6.686v33.546z" fill="#e7253a"/>
    <path d="M57.316 228.104H35.412V206.2h21.904v21.904z" fill="#f8fbcb"/>
    <path d="M104.826 210.738h10.952v-4.38h-10.952c-6.045 0-10.952 4.906-10.952 10.951 0 6.046 4.907 10.952 10.952 10.952h10.952v-4.38h-10.952a6.562 6.562 0 0 1-6.57-6.572 6.562 6.562 0 0 1 6.57-6.571z" fill="#57a32b"/>
    <path d="M126.795 217.314a6.562 6.562 0 0 1 6.571-6.571h10.953v-4.38h-10.952c-6.046 0-10.952 4.906-10.952 10.951v10.952h4.38v-10.952z" fill="#327130"/>
    <path d="M144.314 228.11l12.747-22.245 12.85 22.244h-25.597z" fill="#e7253a"/>
    <path d="M177.397 217.616l11.298-11.249h-7.491l-11.298 11.249 10.655 10.655h7.491z" fill="#f8fbcb"/>
    <path d="M78.351 217.494l7.837 3.596-8.83-10.305 7.059 3.274-9.071-10.601-9.099 10.6 7.059-3.273-8.857 10.305 7.864-3.596-9.232 10.762 12.265-5.636 12.238 5.636z" fill="#9bd872"/>
    <path d="M219.759 228.663l-7.63-8.61h4.82l-6.445-7.27h4.383l-7.914-8.918-7.966 8.919h4.408l-6.47 7.269h4.872l-7.656 8.61z" fill="#57a32b"/>
    <path d="M229.315 210.246v18.185m.516-17.67a.516.516 0 1 1-1.031 0 .516.516 0 0 1 1.031 0zm4.059 0a4.574 4.574 0 1 1-9.149 0 4.574 4.574 0 0 1 9.149 0z" fill="none" stroke-width="2" stroke="#f8fbcb" stroke-linecap="square"/>
    <path d="M266.793 214.072l-12.812 12.786-12.785-12.786" fill="none" stroke-width="2" stroke="#9bd872" stroke-linecap="square"/>
</svg>
