<?xml version="1.0" encoding="utf-8" ?>
<!-- Generator: Assembly 1.0 - http://assemblyapp.co -->
<svg version="1.1" xmlns="http://www.w3.org/2000/svg" xmlns:xlink="http://www.w3.org/1999/xlink" width="300" height="300" viewBox="0 0 300 300">
	<g id="widget" transform="matrix(1,0,0,1,150,150)">
		<path d="M58.6672,-63.9922 C54.4838,-55.6255 44.31,-52.2342 35.9433,-56.4175 C27.5766,-60.6009 24.1853,-70.7747 28.3687,-79.1414 C32.552,-87.5081 42.7258,-90.8994 51.0925,-86.7161 C59.4592,-82.5327 62.8505,-72.3589 58.6672,-63.9922 Z M59.0168,-84.9021 L57.7038,-86.2894 L65.843,-93.9925 L67.156,-92.6052 Z M62.5207,-78.8508 L61.7608,-80.6034 L72.1009,-85.0867 L72.8608,-83.3341 Z M63.7711,-73.8206 L75.021,-74.496 L75.1355,-72.5893 L63.8856,-71.9139 Z M63.2243,-66.7228 L74.0271,-63.5102 L73.4826,-61.6792 L62.6798,-64.8919 Z M60.375,-60.3208 L69.4273,-53.6072 L68.2894,-52.0729 L59.2371,-58.7865 Z M55.6171,-55.1762 L61.8268,-45.7711 L60.2327,-44.7186 L54.0231,-54.1237 Z M49.1824,-52.1106 L51.7865,-41.211 L49.9286,-40.7671 L47.3245,-51.6667 Z M42.1349,-51.2236 L40.8534,-40.0904 L38.9557,-40.3088 L40.2372,-51.442 Z M33.5513,-53.7693 L35.2599,-52.915 L30.2196,-42.8345 L28.511,-43.6888 Z M28.1185,-58.3598 L29.4323,-56.973 L21.2499,-49.2221 L19.9362,-50.6089 Z M24.4159,-64.3877 L25.1758,-62.6351 L14.8941,-58.1772 L14.1342,-59.9297 Z M23.2661,-69.4395 L12.0162,-68.7641 L11.9018,-70.6708 L23.1516,-71.3462 Z M23.6575,-76.4471 L12.9162,-79.6426 L13.4609,-81.4735 L24.2022,-78.278 Z M26.6065,-82.9599 L17.5547,-89.6745 L18.6928,-91.2087 L27.7446,-84.4941 Z M31.6263,-87.9662 L25.4167,-97.3713 L27.0108,-98.4238 L33.2204,-89.0187 Z M37.7561,-91.1836 L35.1519,-102.083 L37.0098,-102.527 L39.614,-91.6274 Z M44.8172,-91.8717 L46.106,-103.068 L48.0037,-102.85 L46.7149,-91.6533 Z M56.8162,-100.299 L58.5248,-99.4448 L53.4845,-89.3643 L51.776,-90.2186 Z" fill="#9bd872" fill-opacity="1" />
		<path d="M26.586,-43.9355 C23.985,-43.9355 21.5841,-43.2019 19.5833,-42.0014 C16.5822,-46.7366 11.3135,-49.9378 5.31121,-49.9378 C-2.09162,-49.9378 -8.36068,-45.2027 -10.6282,-38.4668 C-11.8954,-38.9336 -13.2292,-39.2004 -14.6297,-39.2004 C-20.9655,-39.2004 -26.0341,-34.1318 -26.0341,-27.796 C-26.0341,-21.4603 -20.9655,-16.3917 -14.6297,-16.3917 L26.4526,-16.3917 C34.1222,-16.3917 40.2579,-22.5273 40.2579,-30.1969 C40.3246,-37.7331 34.1222,-43.9355 26.586,-43.9355 Z" fill="#57a32b" fill-opacity="1" />
		<path d="M101.849,-50.467 C97.1547,-50.467 92.7634,-48.4985 89.7349,-45.47 C87.085,-55.3126 77.9996,-62.6567 67.3242,-62.6567 C54.5289,-62.6567 44.1563,-52.2841 44.1563,-39.4888 C44.1563,-26.6935 54.5289,-16.3967 67.3242,-16.3967 L101.849,-16.3967 C111.313,-16.3967 118.96,-24.0436 118.96,-33.5076 C118.96,-42.9716 111.313,-50.467 101.849,-50.467 Z" fill="#327130" fill-opacity="1" />
		<path d="M-122.639,78.2311 L-129.325,78.2311 L-129.325,44.685 L-122.639,44.685 L-122.639,78.2311 Z" fill="#e7253a" fill-opacity="1" />
		<path d="M-92.6836,78.1042 L-114.588,78.1042 L-114.588,56.2002 L-92.6836,56.2002 L-92.6836,78.1042 Z" fill="#f8fbcb" fill-opacity="1" />
		<path d="M-45.1736,60.7379 L-45.1736,60.7379 L-34.2216,60.7379 L-34.2216,56.3571 L-45.1736,56.3571 L-45.1736,56.3571 C-51.2191,56.3571 -56.1256,61.2636 -56.1256,67.3091 C-56.1256,73.3546 -51.2191,78.2611 -45.1736,78.2611 L-45.1736,78.2611 L-34.2216,78.2611 L-34.2216,73.8803 L-45.1736,73.8803 L-45.1736,73.8803 C-48.8097,73.8803 -51.7448,70.9452 -51.7448,67.3091 C-51.7448,63.6731 -48.8097,60.7379 -45.1736,60.7379 Z" fill="#57a32b" fill-opacity="1" />
		<path d="M-23.2047,67.3141 L-23.2047,67.3141 C-23.2047,63.6781 -20.2695,60.7429 -16.6335,60.7429 L-16.6335,60.7429 L-5.68148,60.7429 L-5.68148,56.3621 L-16.6335,56.3621 L-16.6335,56.3621 C-22.679,56.3621 -27.5855,61.2686 -27.5855,67.3141 L-27.5855,67.3141 L-27.5855,78.2661 L-23.2047,78.2661 L-23.2047,67.3141 Z" fill="#327130" fill-opacity="1" />
		<path d="M-5.68648,78.1092 L7.06098,55.8651 L19.9108,78.1092 L-5.68648,78.1092 Z" fill="#e7253a" fill-opacity="1" />
		<path d="M27.3967,67.6158 L38.6948,56.3671 L31.2039,56.3671 L19.9058,67.6158 L30.5611,78.2711 L38.052,78.2711 Z" fill="#f8fbcb" fill-opacity="1" />
		<path d="M-71.6486,67.4942 L-63.8119,71.0904 L-72.6416,60.7847 L-65.5832,64.0589 L-74.6544,53.458 L-83.7525,64.0589 L-76.6941,60.7847 L-85.5506,71.0904 L-77.6871,67.4942 L-86.9193,78.2561 L-74.6544,72.6202 L-62.4164,78.2561 Z" fill="#9bd872" fill-opacity="1" />
		<path d="M69.7586,78.6628 L62.1284,70.053 L66.9488,70.053 L60.5044,62.7837 L64.8866,62.7837 L56.9729,53.8646 L49.0075,62.7837 L53.4155,62.7837 L46.9453,70.053 L51.8173,70.053 L44.1613,78.6628 Z" fill="#57a32b" fill-opacity="1" />
		<path d="M79.3155,60.2457 L79.3155,78.4312 M79.8312,60.7615 C79.8312,61.0463 79.6003,61.2772 79.3155,61.2772 C79.0307,61.2772 78.7997,61.0463 78.7997,60.7615 C78.7997,60.4767 79.0307,60.2458 79.3155,60.2458 C79.6003,60.2458 79.8312,60.4767 79.8312,60.7615 Z M83.8899,60.7615 C83.8899,63.2879 81.8418,65.3359 79.3155,65.3359 C76.7891,65.3359 74.7411,63.2879 74.7411,60.7615 C74.7411,58.2351 76.7891,56.1871 79.3155,56.1871 C81.8418,56.1871 83.8899,58.2351 83.8899,60.7615 Z" fill="none" stroke-width="2" stroke="#f8fbcb" stroke-linecap="square" stroke-linejoin="miter" />
		<path d="M116.793,64.0719 L103.981,76.8576 L91.1955,64.0719" fill="none" stroke-width="2" stroke="#9bd872" stroke-linecap="square" stroke-linejoin="miter" />
	</g>
</svg>