<?xml version="1.0" encoding="utf-8" ?>
<!-- Generator: Assembly 1.0 - http://assemblyapp.co -->
<svg version="1.1" xmlns="http://www.w3.org/2000/svg" xmlns:xlink="http://www.w3.org/1999/xlink" width="300" height="300" viewBox="0 0 300 300">
	<g id="widget" transform="matrix(1,0,0,1,150,150)">
		<path d="M58.1847,-63.0955 C53.5076,-54.9945 43.1489,-52.2189 35.0478,-56.896 C26.9468,-61.5732 24.1712,-71.9319 28.8483,-80.0329 C33.5255,-88.134 43.8842,-90.9096 51.9852,-86.2324 C60.0863,-81.5553 62.8619,-71.1966 58.1847,-63.0955 Z M59.7866,-83.9469 L58.5591,-85.4104 L67.1451,-92.6121 L68.3727,-91.1485 Z M62.9216,-77.6966 L62.2681,-79.4915 L72.8583,-83.3473 L73.5118,-81.5523 Z M63.8684,-72.6006 L75.1385,-72.6007 L75.1386,-70.6905 L63.8684,-70.6904 Z M62.8973,-65.5483 L73.4882,-61.6941 L72.8349,-59.8991 L62.244,-63.7532 Z M59.6695,-59.3285 L68.3033,-52.0845 L67.0755,-50.6212 L58.4417,-57.8651 Z M54.612,-54.4781 L60.2469,-44.7179 L58.5926,-43.7628 L52.9577,-53.5231 Z M48.0051,-51.8036 L49.9515,-40.7675 L48.0704,-40.4357 L46.124,-51.4718 Z M40.9171,-51.3404 L38.9709,-40.304 L37.0897,-40.6358 L39.0359,-51.6722 Z M32.5015,-54.3958 L34.1558,-53.4407 L28.5206,-43.6803 L26.8663,-44.6354 Z M27.3535,-59.3036 L28.5818,-57.8406 L19.9497,-50.5938 L18.7215,-52.0569 Z M24.0187,-65.5425 L24.6722,-63.7476 L14.1419,-59.9137 L13.4884,-61.7086 Z M23.1736,-70.6541 L11.9035,-70.654 L11.9035,-72.5642 L23.1736,-72.5643 Z M23.9842,-77.6257 L13.4537,-81.459 L14.1071,-83.254 L24.6376,-79.4207 Z M27.3182,-83.9501 L18.6849,-91.195 L19.9129,-92.6583 L28.5461,-85.4134 Z M32.6289,-88.6467 L26.9939,-98.407 L28.6482,-99.362 L34.2832,-89.6018 Z M38.9404,-91.491 L36.994,-102.527 L38.8751,-102.859 L40.8215,-91.8228 Z M46.03,-91.7549 L47.9873,-102.854 L49.8685,-102.522 L47.9112,-91.4231 Z M58.5124,-99.4482 L60.1668,-98.493 L54.5316,-88.7326 L52.8773,-89.6877 Z" fill="#9bd872" fill-opacity="1" />
		<path d="M20.0743,-43.9255 C17.4733,-43.9255 15.0724,-43.1919 13.0717,-41.9914 C10.0705,-46.7266 4.80183,-49.9278 -1.20046,-49.9278 C-8.60328,-49.9278 -14.8723,-45.1927 -17.1399,-38.4568 C-18.407,-38.9236 -19.7409,-39.1904 -21.1414,-39.1904 C-27.4772,-39.1904 -32.5458,-34.1218 -32.5458,-27.786 C-32.5458,-21.4503 -27.4772,-16.3817 -21.1414,-16.3817 L19.9409,-16.3817 C27.6105,-16.3817 33.7462,-22.5173 33.7462,-30.1869 C33.8129,-37.7231 27.6105,-43.9255 20.0743,-43.9255 Z" fill="#57a32b" fill-opacity="1" />
		<path d="M108.148,-50.457 C103.454,-50.457 99.0623,-48.4885 96.0338,-45.46 C93.3839,-55.3026 84.2984,-62.6467 73.6231,-62.6467 C60.8277,-62.6467 50.4552,-52.2741 50.4552,-39.4788 C50.4552,-26.6835 60.8277,-16.3867 73.6231,-16.3867 L108.148,-16.3867 C117.612,-16.3867 125.259,-24.0336 125.259,-33.4976 C125.259,-42.9616 117.612,-50.457 108.148,-50.457 Z" fill="#327130" fill-opacity="1" />
		<path d="M-122.639,78.2311 L-129.325,78.2311 L-129.325,44.685 L-122.639,44.685 L-122.639,78.2311 Z" fill="#e7253a" fill-opacity="1" />
		<path d="M-92.6836,78.1042 L-114.588,78.1042 L-114.588,56.2002 L-92.6836,56.2002 L-92.6836,78.1042 Z" fill="#f8fbcb" fill-opacity="1" />
		<path d="M-45.1736,60.7379 L-45.1736,60.7379 L-34.2216,60.7379 L-34.2216,56.3571 L-45.1736,56.3571 L-45.1736,56.3571 C-51.2191,56.3571 -56.1256,61.2636 -56.1256,67.3091 C-56.1256,73.3546 -51.2191,78.2611 -45.1736,78.2611 L-45.1736,78.2611 L-34.2216,78.2611 L-34.2216,73.8803 L-45.1736,73.8803 L-45.1736,73.8803 C-48.8097,73.8803 -51.7448,70.9452 -51.7448,67.3091 C-51.7448,63.6731 -48.8097,60.7379 -45.1736,60.7379 Z" fill="#57a32b" fill-opacity="1" />
		<path d="M-23.2047,67.3141 L-23.2047,67.3141 C-23.2047,63.6781 -20.2695,60.7429 -16.6335,60.7429 L-16.6335,60.7429 L-5.68148,60.7429 L-5.68148,56.3621 L-16.6335,56.3621 L-16.6335,56.3621 C-22.679,56.3621 -27.5855,61.2686 -27.5855,67.3141 L-27.5855,67.3141 L-27.5855,78.2661 L-23.2047,78.2661 L-23.2047,67.3141 Z" fill="#327130" fill-opacity="1" />
		<path d="M-5.68648,78.1092 L7.06098,55.8651 L19.9108,78.1092 L-5.68648,78.1092 Z" fill="#e7253a" fill-opacity="1" />
		<path d="M27.3967,67.6158 L38.6948,56.3671 L31.2039,56.3671 L19.9058,67.6158 L30.5611,78.2711 L38.052,78.2711 Z" fill="#f8fbcb" fill-opacity="1" />
		<path d="M-71.6486,67.4942 L-63.8119,71.0904 L-72.6416,60.7847 L-65.5832,64.0589 L-74.6544,53.458 L-83.7525,64.0589 L-76.6941,60.7847 L-85.5506,71.0904 L-77.6871,67.4942 L-86.9193,78.2561 L-74.6544,72.6202 L-62.4164,78.2561 Z" fill="#9bd872" fill-opacity="1" />
		<path d="M69.7586,78.6628 L62.1284,70.053 L66.9488,70.053 L60.5044,62.7837 L64.8866,62.7837 L56.9729,53.8646 L49.0075,62.7837 L53.4155,62.7837 L46.9453,70.053 L51.8173,70.053 L44.1613,78.6628 Z" fill="#57a32b" fill-opacity="1" />
		<path d="M79.3155,60.2457 L79.3155,78.4312 M79.8312,60.7615 C79.8312,61.0463 79.6003,61.2772 79.3155,61.2772 C79.0307,61.2772 78.7997,61.0463 78.7997,60.7615 C78.7997,60.4767 79.0307,60.2458 79.3155,60.2458 C79.6003,60.2458 79.8312,60.4767 79.8312,60.7615 Z M83.8899,60.7615 C83.8899,63.2879 81.8418,65.3359 79.3155,65.3359 C76.7891,65.3359 74.7411,63.2879 74.7411,60.7615 C74.7411,58.2351 76.7891,56.1871 79.3155,56.1871 C81.8418,56.1871 83.8899,58.2351 83.8899,60.7615 Z" fill="none" stroke-width="2" stroke="#f8fbcb" stroke-linecap="square" stroke-linejoin="miter" />
		<path d="M118.965,63.5845 L108.85,66.2838 L106.143,56.1821" fill="none" stroke-width="2" stroke="#9bd872" stroke-linecap="square" stroke-linejoin="miter" />
	</g>
</svg>