<svg xmlns="http://www.w3.org/2000/svg" width="300" height="300" viewBox="0 0 300 300">
    <path d="M208.185 86.904c-4.677 8.102-15.036 10.877-23.137 6.2-8.101-4.677-10.877-15.036-6.2-23.137 4.677-8.101 15.036-10.877 23.137-6.2 8.101 4.678 10.877 15.036 6.2 23.137zm1.602-20.85l-1.228-1.464 8.586-7.202 1.228 1.464zm3.135 6.25l-.654-1.796 10.59-3.855.654 1.795zm.946 5.095h11.27v1.91h-11.27zm-.97 7.053l10.59 3.854-.653 1.795-10.591-3.854zm-3.229 6.22l8.634 7.244-1.228 1.463-8.633-7.244zm-5.057 4.85l5.635 9.76-1.654.955-5.635-9.76zm-6.607 2.674l1.946 11.037-1.88.331-1.947-11.036zm-7.088.464l-1.946 11.036-1.881-.332 1.946-11.036zm-8.416-3.056l1.655.955-5.635 9.76-1.655-.954zm-5.148-4.908l1.229 1.463-8.632 7.247-1.229-1.463zm-3.334-6.238l.653 1.794-10.53 3.834-.654-1.795zm-.845-5.112h-11.27v-1.91h11.27zm.81-6.972l-10.53-3.833.653-1.795 10.53 3.833zm3.334-6.324l-8.633-7.245 1.228-1.463 8.633 7.245zm5.31-4.697l-5.634-9.76 1.654-.955 5.635 9.76zm6.312-2.844l-1.946-11.036 1.881-.332 1.946 11.036zm7.09-.264l1.957-11.099 1.881.332-1.957 11.099zm12.482-7.693l1.655.955-5.635 9.76-1.655-.955z" fill="#9bd872"/>
    <path d="M156.243 106.084c-2.6 0-5.002.734-7.002 1.935-3.001-4.736-8.27-7.937-14.272-7.937-7.403 0-13.672 4.735-15.94 11.471a11.507 11.507 0 0 0-4.001-.733 11.357 11.357 0 0 0-11.405 11.404 11.357 11.357 0 0 0 11.405 11.404h41.082c7.67 0 13.805-6.135 13.805-13.805.067-7.536-6.135-13.738-13.672-13.738z" fill="#57a32b"/>
    <path d="M261.512 99.553c-4.695 0-9.086 1.969-12.114 4.997-2.65-9.843-11.736-17.187-22.411-17.187-12.795 0-23.168 10.373-23.168 23.168 0 12.796 10.373 23.092 23.168 23.092h34.525c9.464 0 17.111-7.647 17.111-17.11 0-9.465-7.647-16.96-17.111-16.96z" fill="#327130"/>
    <path d="M27.361 228.231h-6.686v-33.546h6.686v33.546z" fill="#e7253a"/>
    <path d="M57.316 228.104H35.412V206.2h21.904v21.904z" fill="#f8fbcb"/>
    <path d="M104.826 210.738h10.952v-4.38h-10.952c-6.045 0-10.952 4.906-10.952 10.951 0 6.046 4.907 10.952 10.952 10.952h10.952v-4.38h-10.952a6.562 6.562 0 0 1-6.57-6.572 6.562 6.562 0 0 1 6.57-6.571z" fill="#57a32b"/>
    <path d="M126.795 217.314a6.562 6.562 0 0 1 6.571-6.571h10.953v-4.38h-10.952c-6.046 0-10.952 4.906-10.952 10.951v10.952h4.38v-10.952z" fill="#327130"/>
    <path d="M144.314 228.11l12.747-22.245 12.85 22.244h-25.597z" fill="#e7253a"/>
    <path d="M177.397 217.616l11.298-11.249h-7.491l-11.298 11.249 10.655 10.655h7.491z" fill="#f8fbcb"/>
    <path d="M78.351 217.494l7.837 3.596-8.83-10.305 7.059 3.274-9.071-10.601-9.099 10.6 7.059-3.273-8.857 10.305 7.864-3.596-9.232 10.762 12.265-5.636 12.238 5.636z" fill="#9bd872"/>
    <path d="M219.759 228.663l-7.63-8.61h4.82l-6.445-7.27h4.383l-7.914-8.918-7.966 8.919h4.408l-6.47 7.269h4.872l-7.656 8.61z" fill="#57a32b"/>
    <path d="M229.315 210.246v18.185m.516-17.67a.516.516 0 1 1-1.031 0 .516.516 0 0 1 1.031 0zm4.059 0a4.574 4.574 0 1 1-9.149 0 4.574 4.574 0 0 1 9.149 0z" fill="none" stroke-width="2" stroke="#f8fbcb" stroke-linecap="square"/>
    <path d="M272.943 212.335l-7.47-.008v-7.462" fill="none" stroke-width="2" stroke="#9bd872" stroke-linecap="square"/>
</svg>
