<svg xmlns="http://www.w3.org/2000/svg" width="300" height="300" viewBox="0 0 300 300">
    <path d="M207.073 88.59c-5.605 7.489-16.22 9.016-23.709 3.41-7.489-5.605-9.016-16.22-3.41-23.709 5.605-7.489 16.22-9.016 23.709-3.41 7.488 5.605 9.015 16.22 3.41 23.709zm4.065-20.514l-1.045-1.599 9.38-6.132 1.045 1.599zm2.371 6.578l-.436-1.86 10.973-2.572.436 1.86zm.335 5.172l11.19 1.338-.226 1.896-11.19-1.337zm-1.8 6.888l10.058 5.083-.861 1.705-10.06-5.083zm-3.944 5.793l7.714 8.217-1.393 1.307-7.713-8.217zm-5.597 4.215l4.437 10.36-1.756.753-4.437-10.36zm-6.877 1.872l.623 11.19-1.907.105-.624-11.189zm-7.093-.38l-3.242 10.727-1.829-.553 3.242-10.727zm-7.994-4.033l1.53 1.144-6.754 9.023-1.53-1.144zm-4.53-5.484l1.047 1.598-9.431 6.172-1.046-1.599zm-2.57-6.59l.436 1.86-10.911 2.556-.436-1.86zm-.233-5.177l-11.19-1.337.226-1.896 11.19 1.337zm1.632-6.826l-10.001-5.055.862-1.705L175.7 68.4zm4.061-5.884l-7.713-8.218 1.393-1.307 7.713 8.218zm5.83-4.033l-4.436-10.36 1.755-.752 4.437 10.36zm6.605-2.075l-.623-11.189 1.907-.107.623 11.19zm7.07.579l3.261-10.789 1.829.553-3.26 10.788zm13.308-6.158l1.53 1.145-6.754 9.023-1.53-1.145z" fill="#9bd872"/>
    <path d="M148.348 106.094c-2.6 0-5.002.734-7.002 1.935-3.002-4.736-8.27-7.937-14.272-7.937-7.403 0-13.672 4.735-15.94 11.471a11.507 11.507 0 0 0-4.001-.733 11.357 11.357 0 0 0-11.405 11.404 11.357 11.357 0 0 0 11.405 11.404h41.082c7.67 0 13.805-6.135 13.805-13.805.067-7.536-6.136-13.738-13.672-13.738z" fill="#57a32b"/>
    <path d="M262.221 99.563c-4.694 0-9.085 1.968-12.114 4.997-2.65-9.843-11.735-17.187-22.41-17.187-12.796 0-23.168 10.373-23.168 23.168 0 12.796 10.372 23.092 23.167 23.092h34.525c9.464 0 17.111-7.647 17.111-17.11 0-9.465-7.647-16.96-17.111-16.96z" fill="#327130"/>
    <path d="M27.361 228.231h-6.686v-33.546h6.686v33.546z" fill="#e7253a"/>
    <path d="M57.316 228.104H35.412V206.2h21.904v21.904z" fill="#f8fbcb"/>
    <path d="M104.826 210.738h10.952v-4.38h-10.952c-6.045 0-10.952 4.906-10.952 10.951 0 6.046 4.907 10.952 10.952 10.952h10.952v-4.38h-10.952a6.562 6.562 0 0 1-6.57-6.572 6.562 6.562 0 0 1 6.57-6.571z" fill="#57a32b"/>
    <path d="M126.795 217.314a6.562 6.562 0 0 1 6.571-6.571h10.953v-4.38h-10.952c-6.046 0-10.952 4.906-10.952 10.951v10.952h4.38v-10.952z" fill="#327130"/>
    <path d="M144.314 228.11l12.747-22.245 12.85 22.244h-25.597z" fill="#e7253a"/>
    <path d="M177.397 217.616l11.298-11.249h-7.491l-11.298 11.249 10.655 10.655h7.491z" fill="#f8fbcb"/>
    <path d="M78.351 217.494l7.837 3.596-8.83-10.305 7.059 3.274-9.071-10.601-9.099 10.6 7.059-3.273-8.857 10.305 7.864-3.596-9.232 10.762 12.265-5.636 12.238 5.636z" fill="#9bd872"/>
    <path d="M219.759 228.663l-7.63-8.61h4.82l-6.445-7.27h4.383l-7.914-8.918-7.966 8.919h4.408l-6.47 7.269h4.872l-7.656 8.61z" fill="#57a32b"/>
    <path d="M229.315 210.246v18.185m.516-17.67a.516.516 0 1 1-1.031 0 .516.516 0 0 1 1.031 0zm4.059 0a4.574 4.574 0 1 1-9.149 0 4.574 4.574 0 0 1 9.149 0z" fill="none" stroke-width="2" stroke="#f8fbcb" stroke-linecap="square"/>
</svg>
