<?xml version="1.0" encoding="utf-8" ?>
<!-- Generator: Assembly 1.0 - http://assemblyapp.co -->
<svg version="1.1" xmlns="http://www.w3.org/2000/svg" xmlns:xlink="http://www.w3.org/1999/xlink" width="300" height="300" viewBox="0 0 300 300">
	<g id="widget" transform="matrix(1,0,0,1,150,150)">
		<path d="M57.0731,-61.4101 C51.4678,-53.9213 40.8529,-52.3944 33.3641,-57.9997 C25.8752,-63.605 24.3483,-74.2199 29.9536,-81.7087 C35.5589,-89.1976 46.1738,-90.7245 53.6627,-85.1192 C61.1515,-79.5139 62.6784,-68.899 57.0731,-61.4101 Z M61.1377,-81.9241 L60.0925,-83.523 L69.4724,-89.6549 L70.5176,-88.0561 Z M63.509,-75.346 L63.0731,-77.2058 L74.0459,-79.7777 L74.4818,-77.9179 Z M63.8444,-70.1736 L75.0349,-68.8365 L74.8083,-66.9398 L63.6178,-68.2769 Z M62.0434,-63.2864 L72.1022,-58.2028 L71.2405,-56.4979 L61.1818,-61.5815 Z M58.1004,-57.4935 L65.8137,-49.2763 L64.4209,-47.9689 L56.7076,-56.1861 Z M52.5031,-53.2775 L56.9401,-42.9176 L55.1842,-42.1655 L50.7472,-52.5255 Z M45.6256,-51.4058 L46.2487,-40.2167 L44.3415,-40.1105 L43.7183,-51.2996 Z M38.5327,-51.7869 L35.2907,-41.0594 L33.4621,-41.612 L36.7042,-52.3395 Z M30.539,-55.8193 L32.0683,-54.6746 L25.3148,-45.6518 L23.7855,-46.7964 Z M26.0098,-61.3032 L27.0558,-59.7048 L17.6248,-53.5334 L16.5788,-55.1319 Z M23.4388,-67.8937 L23.8747,-66.0339 L12.9639,-63.4765 L12.5279,-65.3363 Z M23.2062,-73.0695 L12.0157,-74.4066 L12.2423,-76.3033 L23.4328,-74.9662 Z M24.8382,-79.8956 L14.837,-84.9514 L15.6987,-86.6561 L25.7,-81.6004 Z M28.899,-85.7798 L21.1864,-93.9979 L22.5793,-95.3051 L30.2919,-87.087 Z M34.7295,-89.813 L30.2925,-100.173 L32.0484,-100.925 L36.4854,-90.5651 Z M41.3339,-91.8884 L40.7107,-103.077 L42.618,-103.184 L43.2411,-91.9946 Z M48.4048,-91.3092 L51.6652,-102.098 L53.4938,-101.545 L50.2333,-90.7565 Z M61.7119,-97.467 L63.2412,-96.3224 L56.4877,-87.2995 L54.9584,-88.4442 Z" fill="#9bd872" fill-opacity="1" />
		<path d="M-1.65176,-43.9055 C-4.25275,-43.9055 -6.65366,-43.1719 -8.65443,-41.9714 C-11.6556,-46.7066 -16.9243,-49.9078 -22.9265,-49.9078 C-30.3294,-49.9078 -36.5984,-45.1727 -38.866,-38.4368 C-40.1331,-38.9036 -41.467,-39.1704 -42.8675,-39.1704 C-49.2032,-39.1704 -54.2718,-34.1018 -54.2718,-27.766 C-54.2718,-21.4303 -49.2032,-16.3617 -42.8675,-16.3617 L-1.78514,-16.3617 C5.88446,-16.3617 12.0201,-22.4973 12.0201,-30.1669 C12.0868,-37.7031 5.88446,-43.9055 -1.65176,-43.9055 Z" fill="#57a32b" fill-opacity="1" />
		<path d="M112.221,-50.437 C107.527,-50.437 103.136,-48.4685 100.107,-45.44 C97.4571,-55.2826 88.3717,-62.6267 77.6963,-62.6267 C64.901,-62.6267 54.5285,-52.2541 54.5285,-39.4588 C54.5285,-26.6635 64.901,-16.3667 77.6963,-16.3667 L112.221,-16.3667 C121.685,-16.3667 129.332,-24.0136 129.332,-33.4776 C129.332,-42.9416 121.685,-50.437 112.221,-50.437 Z" fill="#327130" fill-opacity="1" />
		<path d="M-122.639,78.2311 L-129.325,78.2311 L-129.325,44.685 L-122.639,44.685 L-122.639,78.2311 Z" fill="#e7253a" fill-opacity="1" />
		<path d="M-92.6836,78.1042 L-114.588,78.1042 L-114.588,56.2002 L-92.6836,56.2002 L-92.6836,78.1042 Z" fill="#f8fbcb" fill-opacity="1" />
		<path d="M-45.1736,60.7379 L-45.1736,60.7379 L-34.2216,60.7379 L-34.2216,56.3571 L-45.1736,56.3571 L-45.1736,56.3571 C-51.2191,56.3571 -56.1256,61.2636 -56.1256,67.3091 C-56.1256,73.3546 -51.2191,78.2611 -45.1736,78.2611 L-45.1736,78.2611 L-34.2216,78.2611 L-34.2216,73.8803 L-45.1736,73.8803 L-45.1736,73.8803 C-48.8097,73.8803 -51.7448,70.9452 -51.7448,67.3091 C-51.7448,63.6731 -48.8097,60.7379 -45.1736,60.7379 Z" fill="#57a32b" fill-opacity="1" />
		<path d="M-23.2047,67.3141 L-23.2047,67.3141 C-23.2047,63.6781 -20.2695,60.7429 -16.6335,60.7429 L-16.6335,60.7429 L-5.68148,60.7429 L-5.68148,56.3621 L-16.6335,56.3621 L-16.6335,56.3621 C-22.679,56.3621 -27.5855,61.2686 -27.5855,67.3141 L-27.5855,67.3141 L-27.5855,78.2661 L-23.2047,78.2661 L-23.2047,67.3141 Z" fill="#327130" fill-opacity="1" />
		<path d="M-5.68648,78.1092 L7.06098,55.8651 L19.9108,78.1092 L-5.68648,78.1092 Z" fill="#e7253a" fill-opacity="1" />
		<path d="M27.3967,67.6158 L38.6948,56.3671 L31.2039,56.3671 L19.9058,67.6158 L30.5611,78.2711 L38.052,78.2711 Z" fill="#f8fbcb" fill-opacity="1" />
		<path d="M-71.6486,67.4942 L-63.8119,71.0904 L-72.6416,60.7847 L-65.5832,64.0589 L-74.6544,53.458 L-83.7525,64.0589 L-76.6941,60.7847 L-85.5506,71.0904 L-77.6871,67.4942 L-86.9193,78.2561 L-74.6544,72.6202 L-62.4164,78.2561 Z" fill="#9bd872" fill-opacity="1" />
		<path d="M69.7586,78.6628 L62.1284,70.053 L66.9488,70.053 L60.5044,62.7837 L64.8866,62.7837 L56.9729,53.8646 L49.0075,62.7837 L53.4155,62.7837 L46.9453,70.053 L51.8173,70.053 L44.1613,78.6628 Z" fill="#57a32b" fill-opacity="1" />
		<path d="M79.3155,60.2457 L79.3155,78.4312 M79.8312,60.7615 C79.8312,61.0463 79.6003,61.2772 79.3155,61.2772 C79.0307,61.2772 78.7997,61.0463 78.7997,60.7615 C78.7997,60.4767 79.0307,60.2458 79.3155,60.2458 C79.6003,60.2458 79.8312,60.4767 79.8312,60.7615 Z M83.8899,60.7615 C83.8899,63.2879 81.8418,65.3359 79.3155,65.3359 C76.7891,65.3359 74.7411,63.2879 74.7411,60.7615 C74.7411,58.2351 76.7891,56.1871 79.3155,56.1871 C81.8418,56.1871 83.8899,58.2351 83.8899,60.7615 Z" fill="none" stroke-width="2" stroke="#f8fbcb" stroke-linecap="square" stroke-linejoin="miter" />
	</g>
</svg>