<svg xmlns="http://www.w3.org/2000/svg" width="300" height="300" viewBox="0 100 300 300">
    <path d="M210.46 78.412c0 9.354-7.583 16.937-16.937 16.937-9.354 0-16.937-7.583-16.937-16.938 0-9.354 7.583-16.937 16.937-16.937 9.354 0 16.937 7.583 16.937 16.938zm-9.038-18.86l-1.795-.653 3.835-10.53 1.795.654zm5.84 3.846l-1.463-1.227 7.243-8.635 1.464 1.228zm3.368 3.94l9.76-5.635.955 1.654-9.76 5.635zm2.685 6.593l11.1-1.958.331 1.882-11.099 1.957zm.315 7l11.099 1.957-.332 1.881-11.099-1.956zm-1.955 6.73l9.76 5.635-.955 1.654-9.76-5.635zm-4.384 5.62l7.203 8.584-1.463 1.228-7.204-8.585zm-5.907 3.944l3.833 10.531-1.796.654-3.832-10.531zm-8.816 1.562h1.91v11.27h-1.91zm-6.912-1.676l1.795.653-3.852 10.592-1.795-.653zm-6.008-3.736l1.464 1.228-7.203 8.585-1.463-1.227zm-3.287-4.004l-9.76 5.635-.956-1.654 9.76-5.635zm-2.784-6.443l-11.037 1.946-.331-1.882 11.036-1.945zm-.275-7.144l-11.1-1.958.333-1.88 11.099 1.957zm2.25-6.723l-9.76-5.635.956-1.654 9.76 5.635zm4.045-5.619l-7.204-8.584 1.463-1.228 7.204 8.585zm6.007-3.773l-3.854-10.591 1.795-.653 3.855 10.59zm6.964-12.904h1.91v11.27h-1.91z" fill="#9bd872">
        <animateTransform attributeName="transform" attributeType="XML" type="rotate" from="0" to="360" dur="2s" repeatCount="indefinite"/>
    </path>
    <path d="M182.368 106.035c-2.6 0-5.001.733-7.002 1.934-3.001-4.736-8.27-7.937-14.272-7.937-7.403 0-13.672 4.735-15.94 11.471a11.507 11.507 0 0 0-4.001-.733 11.357 11.357 0 0 0-11.405 11.404 11.357 11.357 0 0 0 11.405 11.404h41.082c7.67 0 13.805-6.135 13.805-13.805.067-7.536-6.135-13.738-13.672-13.738z" fill="#57a32b"/>
    <path d="M245.83 99.513c-4.694 0-9.085 1.968-12.114 4.997-2.65-9.843-11.735-17.187-22.41-17.187-12.796 0-23.168 10.373-23.168 23.168 0 12.796 10.372 23.092 23.168 23.092h34.524c9.464 0 17.111-7.647 17.111-17.11 0-9.465-7.647-16.96-17.11-16.96z" fill="#327130"/>
    <path d="M27.361 228.231h-6.686v-33.546h6.686v33.546z" fill="#e7253a"/>
    <path d="M57.316 228.104H35.412V206.2h21.904v21.904z" fill="#f8fbcb"/>
    <path d="M104.826 210.738h10.952v-4.38h-10.952c-6.045 0-10.952 4.906-10.952 10.951 0 6.046 4.907 10.952 10.952 10.952h10.952v-4.38h-10.952a6.562 6.562 0 0 1-6.57-6.572 6.562 6.562 0 0 1 6.57-6.571z" fill="#57a32b"/>
    <path d="M126.795 217.314a6.562 6.562 0 0 1 6.571-6.571h10.953v-4.38h-10.952c-6.046 0-10.952 4.906-10.952 10.951v10.952h4.38v-10.952z" fill="#327130"/>
    <path d="M144.314 228.11l12.747-22.245 12.85 22.244h-25.597z" fill="#e7253a"/>
    <path d="M177.397 217.616l11.298-11.249h-7.491l-11.298 11.249 10.655 10.655h7.491z" fill="#f8fbcb"/>
    <path d="M78.351 217.494l7.837 3.596-8.83-10.305 7.059 3.274-9.071-10.601-9.099 10.6 7.059-3.273-8.857 10.305 7.864-3.596-9.232 10.762 12.265-5.636 12.238 5.636z" fill="#9bd872"/>
    <path d="M219.759 228.663l-7.63-8.61h4.82l-6.445-7.27h4.383l-7.914-8.918-7.966 8.919h4.408l-6.47 7.269h4.872l-7.656 8.61z" fill="#57a32b"/>
    <path d="M229.315 210.246v18.185m.516-17.67a.516.516 0 1 1-1.031 0 .516.516 0 0 1 1.031 0zm4.059 0a4.574 4.574 0 1 1-9.149 0 4.574 4.574 0 0 1 9.149 0z" fill="none" stroke-width="2" stroke="#f8fbcb" stroke-linecap="square"/>
    <path d="M266.793 214.072l-12.812 12.786-12.785-12.786" fill="none" stroke-width="2" stroke="#9bd872" stroke-linecap="square"/>
    <path d="M285.749 228.668v-4.434a6.642 6.642 0 0 1-6.651-6.65c0-3.68 2.971-6.65 6.651-6.65V206.5c-6.119 0-11.084 4.965-11.084 11.084 0 6.118 4.965 11.084 11.084 11.084z" fill="#327130"/>
</svg>
