<?xml version="1.0" encoding="utf-8" ?>
<!-- Generator: Assembly 1.0 - http://assemblyapp.co -->
<svg version="1.1" xmlns="http://www.w3.org/2000/svg" xmlns:xlink="http://www.w3.org/1999/xlink" width="300" height="300" viewBox="0 0 300 300">
	<g id="widget" transform="matrix(1,0,0,1,150,150)">
		<path d="M60.4604,-71.5885 C60.4604,-62.2343 52.8773,-54.6511 43.523,-54.6511 C34.1688,-54.6511 26.5856,-62.2343 26.5856,-71.5885 C26.5856,-80.9428 34.1688,-88.5259 43.523,-88.5259 C52.8773,-88.5259 60.4604,-80.9428 60.4604,-71.5885 Z M51.422,-90.4473 L49.6271,-91.1009 L53.4621,-101.631 L55.2569,-100.977 Z M57.2622,-86.6018 L55.7987,-87.8295 L63.0422,-96.4638 L64.5056,-95.2361 Z M60.6301,-82.6619 L70.3903,-88.2971 L71.3454,-86.6429 L61.5852,-81.0077 Z M63.3152,-76.0689 L74.4143,-78.0266 L74.7461,-76.1454 L63.647,-74.1877 Z M63.6298,-69.0685 L74.7289,-67.112 L74.3972,-65.2308 L63.2982,-67.1873 Z M61.675,-62.3393 L71.4352,-56.7041 L70.48,-55.0498 L60.7199,-60.685 Z M57.2906,-56.7196 L64.4942,-48.1353 L63.031,-46.9074 L55.8273,-55.4917 Z M51.3838,-52.7745 L55.2165,-42.2436 L53.4214,-41.5903 L49.5888,-52.1212 Z M42.5679,-51.2127 L44.4781,-51.2127 L44.4781,-39.9424 L42.5679,-39.9424 Z M35.6558,-52.889 L37.451,-52.2361 L33.5988,-41.6442 L31.8036,-42.2971 Z M29.6483,-56.6247 L31.1117,-55.397 L23.9092,-46.8115 L22.4457,-48.0392 Z M26.3606,-60.6289 L16.6005,-54.9937 L15.6454,-56.648 L25.4055,-62.2832 Z M23.5768,-67.0717 L12.5405,-65.1263 L12.2088,-67.0075 L23.2452,-68.9529 Z M23.3019,-74.2158 L12.2028,-76.1735 L12.5346,-78.0547 L23.6337,-76.097 Z M25.5528,-80.9385 L15.7927,-86.5737 L16.7478,-88.228 L26.5079,-82.5928 Z M29.5966,-86.5575 L22.3929,-95.1418 L23.8562,-96.3697 L31.0598,-87.7854 Z M35.6045,-90.3308 L31.75,-100.922 L33.545,-101.575 L37.3995,-90.9841 Z M42.5679,-103.235 L44.4781,-103.235 L44.4781,-91.9643 L42.5679,-91.9643 Z" fill="#9bd872" fill-opacity="1" />
		<path d="M32.3685,-43.9655 C29.7675,-43.9655 27.3666,-43.2319 25.3658,-42.0314 C22.3647,-46.7666 17.096,-49.9678 11.0937,-49.9678 C3.69091,-49.9678 -2.57815,-45.2327 -4.84569,-38.4968 C-6.11284,-38.9636 -7.44668,-39.2304 -8.84721,-39.2304 C-15.183,-39.2304 -20.2516,-34.1618 -20.2516,-27.826 C-20.2516,-21.4903 -15.183,-16.4217 -8.84721,-16.4217 L32.2351,-16.4217 C39.9047,-16.4217 46.0404,-22.5573 46.0404,-30.2269 C46.1071,-37.7631 39.9047,-43.9655 32.3685,-43.9655 Z" fill="#57a32b" fill-opacity="1" />
		<path d="M95.8304,-50.487 C91.1362,-50.487 86.745,-48.5185 83.7165,-45.49 C81.0666,-55.3326 71.9811,-62.6767 61.3057,-62.6767 C48.5104,-62.6767 38.1379,-52.3041 38.1379,-39.5088 C38.1379,-26.7135 48.5104,-16.4167 61.3057,-16.4167 L95.8304,-16.4167 C105.294,-16.4167 112.941,-24.0636 112.941,-33.5276 C112.941,-42.9916 105.294,-50.487 95.8304,-50.487 Z" fill="#327130" fill-opacity="1" />
		<path d="M-122.639,78.2311 L-129.325,78.2311 L-129.325,44.685 L-122.639,44.685 L-122.639,78.2311 Z" fill="#e7253a" fill-opacity="1" />
		<path d="M-92.6836,78.1042 L-114.588,78.1042 L-114.588,56.2002 L-92.6836,56.2002 L-92.6836,78.1042 Z" fill="#f8fbcb" fill-opacity="1" />
		<path d="M-45.1736,60.7379 L-45.1736,60.7379 L-34.2216,60.7379 L-34.2216,56.3571 L-45.1736,56.3571 L-45.1736,56.3571 C-51.2191,56.3571 -56.1256,61.2636 -56.1256,67.3091 C-56.1256,73.3546 -51.2191,78.2611 -45.1736,78.2611 L-45.1736,78.2611 L-34.2216,78.2611 L-34.2216,73.8803 L-45.1736,73.8803 L-45.1736,73.8803 C-48.8097,73.8803 -51.7448,70.9452 -51.7448,67.3091 C-51.7448,63.6731 -48.8097,60.7379 -45.1736,60.7379 Z" fill="#57a32b" fill-opacity="1" />
		<path d="M-23.2047,67.3141 L-23.2047,67.3141 C-23.2047,63.6781 -20.2695,60.7429 -16.6335,60.7429 L-16.6335,60.7429 L-5.68148,60.7429 L-5.68148,56.3621 L-16.6335,56.3621 L-16.6335,56.3621 C-22.679,56.3621 -27.5855,61.2686 -27.5855,67.3141 L-27.5855,67.3141 L-27.5855,78.2661 L-23.2047,78.2661 L-23.2047,67.3141 Z" fill="#327130" fill-opacity="1" />
		<path d="M-5.68648,78.1092 L7.06097,55.8651 L19.9108,78.1092 L-5.68648,78.1092 Z" fill="#e7253a" fill-opacity="1" />
		<path d="M27.3967,67.6158 L38.6948,56.3671 L31.2039,56.3671 L19.9058,67.6158 L30.5611,78.2711 L38.052,78.2711 Z" fill="#f8fbcb" fill-opacity="1" />
		<path d="M-71.6486,67.4942 L-63.8119,71.0904 L-72.6416,60.7847 L-65.5832,64.0589 L-74.6544,53.458 L-83.7525,64.0589 L-76.6941,60.7847 L-85.5506,71.0904 L-77.6871,67.4942 L-86.9193,78.2561 L-74.6544,72.6202 L-62.4164,78.2561 Z" fill="#9bd872" fill-opacity="1" />
		<path d="M69.7586,78.6628 L62.1284,70.053 L66.9488,70.053 L60.5044,62.7837 L64.8866,62.7837 L56.9729,53.8646 L49.0075,62.7837 L53.4155,62.7837 L46.9453,70.053 L51.8173,70.053 L44.1613,78.6628 Z" fill="#57a32b" fill-opacity="1" />
		<path d="M79.3155,60.2457 L79.3155,78.4312 M79.8312,60.7615 C79.8312,61.0463 79.6003,61.2772 79.3155,61.2772 C79.0307,61.2772 78.7997,61.0463 78.7997,60.7615 C78.7997,60.4767 79.0307,60.2458 79.3155,60.2458 C79.6003,60.2458 79.8312,60.4767 79.8312,60.7615 Z M83.8899,60.7615 C83.8899,63.2879 81.8418,65.3359 79.3155,65.3359 C76.7891,65.3359 74.7411,63.2879 74.7411,60.7615 C74.7411,58.2351 76.7891,56.1871 79.3155,56.1871 C81.8418,56.1871 83.8899,58.2351 83.8899,60.7615 Z" fill="none" stroke-width="2" stroke="#f8fbcb" stroke-linecap="square" stroke-linejoin="miter" />
		<path d="M116.793,64.0719 L103.981,76.8576 L91.1955,64.0719" fill="none" stroke-width="2" stroke="#9bd872" stroke-linecap="square" stroke-linejoin="miter" />
		<path d="M135.749,78.6678 L135.749,74.2342 L135.749,74.2342 L135.749,74.2342 C132.069,74.2342 129.098,71.2637 129.098,67.5838 C129.098,63.904 132.069,60.9335 135.749,60.9335 L135.749,60.9335 L135.749,56.4999 L135.749,56.4999 L135.749,56.4999 C129.63,56.4999 124.665,61.4655 124.665,67.5838 C124.665,73.7022 129.63,78.6678 135.749,78.6678 L135.749,78.6678 Z" fill="#327130" fill-opacity="1" />
	</g>
</svg>