<svg xmlns="http://www.w3.org/2000/svg" width="300" height="300" viewBox="0 0 300 300">
    <path d="M177.46 149.682c0 15.122-12.26 27.38-27.381 27.38-15.123 0-27.381-12.258-27.381-27.38s12.258-27.381 27.38-27.381 27.381 12.259 27.381 27.38zm-14.612-30.487l-2.902-1.057 6.2-17.022 2.901 1.056zm9.441 6.216l-2.366-1.984 11.71-13.959 2.366 1.985zm5.445 6.37l15.778-9.11 1.544 2.674-15.778 9.11zm4.34 10.658l17.943-3.165.536 3.041-17.942 3.165zm.509 11.316l17.942 3.163-.536 3.041-17.942-3.162zm-3.16 10.879l15.778 9.11-1.544 2.674-15.778-9.11zm-7.088 9.085l11.645 13.877-2.365 1.985-11.646-13.877zm-9.549 6.377l6.196 17.024-2.902 1.057-6.196-17.025zm-14.252 2.525h3.089v18.22h-3.089zm-11.174-2.71l2.903 1.056-6.228 17.122-2.902-1.055zm-9.711-6.039l2.366 1.985-11.644 13.879-2.366-1.985zm-5.315-6.473l-15.778 9.11-1.544-2.675 15.778-9.11zm-4.5-10.416l-17.842 3.146-.536-3.042 17.842-3.145zm-.445-11.549l-17.942-3.164.536-3.041 17.943 3.164zm3.639-10.867l-15.778-9.11 1.544-2.674 15.778 9.11zm6.537-9.084l-11.645-13.877 2.365-1.985 11.646 13.877zm9.712-6.1l-6.23-17.12 2.901-1.057 6.231 17.12zm11.257-20.86h3.089v18.22h-3.089z" fill="#9bd872">
	    <animateTransform attributeName="transform" attributeType="XML" type="rotate" from="0 150 150" to="360 150 150" dur="5s" repeatCount="indefinite"/>
    </path>
    <path d="M135.946 182.554a20.736 20.736 0 0 0-10.68 2.95c-4.577-7.222-12.613-12.104-21.767-12.104-11.29 0-20.852 7.221-24.31 17.495-1.933-.712-3.968-1.12-6.104-1.12a17.321 17.321 0 0 0-17.393 17.394c0 9.663 7.73 17.394 17.393 17.394h62.658a20.968 20.968 0 0 0 21.055-21.055c.102-11.494-9.358-20.954-20.852-20.954z" fill="#57a32b">
	    <animateTransform attributeName="transform" attributeType="XML" type="translate" values="15,0;-50,0;15,0" dur="17s" repeatCount="indefinite"/>
    </path>
    <path d="M228.211 191.955c-7.147 0-13.833 2.997-18.445 7.608-4.034-14.986-17.868-26.168-34.123-26.168-19.482 0-35.276 15.793-35.276 35.275 0 19.483 15.794 35.161 35.276 35.161h52.568c14.41 0 26.054-11.643 26.054-26.053s-11.644-25.823-26.054-25.823z" fill="#327130">
	    <animateTransform attributeName="transform" attributeType="XML" type="translate" values="-10,0;35,0;-10,0" dur="15s" repeatCount="indefinite"/>
    </path>
</svg>
