<?xml version="1.0" encoding="utf-8" ?>
<!-- Generator: Assembly 1.0 - http://assemblyapp.co -->
<svg version="1.1" xmlns="http://www.w3.org/2000/svg" xmlns:xlink="http://www.w3.org/1999/xlink" width="300" height="300" viewBox="0 0 300 300">
	<g id="widget" transform="matrix(1,0,0,1,150,150)">
		<path d="M115.012,1.4014 L65.7936,-47.5575 L32.3772,-43.4129 L28.4915,-79.1606 L-3.62967,-95.2212 L-40.1546,-73.4617 L-39.1184,-38.232 L-62.9503,-34.6054 L-115.277,13.3173 L-104.397,11.245 L-94.2943,94.3974 C-93.2582,93.8794 -12.1781,84.5539 -9.3286,84.5539 C-6.47914,84.5539 104.132,84.5539 104.132,84.5539 L101.8,1.4014 C102.059,1.4014 115.012,1.4014 115.012,1.4014 Z M-70.9806,72.1198 L-80.047,72.1198 L-78.4928,52.4327 L-70.9806,50.1013 L-70.9806,72.1198 L-70.9806,72.1198 Z M-78.4928,49.0651 L-86.005,27.8237 C-83.4146,27.5646 -72.5348,24.1971 -72.5348,24.1971 L-71.2396,46.2157 L-78.4928,49.0651 Z M-67.8721,72.897 L-66.5769,49.8422 L-60.1008,51.3965 L-58.0285,71.3427 L-67.8721,72.897 Z M-60.3599,45.6976 L-67.8721,45.6976 L-65.5407,23.938 L-52.0705,25.4923 L-60.3599,45.6976 Z M-7.25626,-73.4617 L-4.92488,-58.9554 L-25.1302,-54.8107 C-24.8711,-54.8107 -24.094,-67.2447 -7.25626,-73.4617 Z M-24.8711,-49.6299 C-20.4674,-51.4432 -4.66584,-54.8107 -4.66584,-54.8107 L-3.62967,-39.5272 C-3.88872,-39.5272 -23.5759,-34.8645 -24.8711,-49.6299 Z M-1.2983,-73.4617 C16.0575,-73.4617 14.7623,-59.7325 14.7623,-59.7325 L-0.262129,-59.7325 L-1.2983,-73.4617 Z M0.774039,-39.7863 L0.774039,-54.0336 C0.774039,-54.0336 15.0213,-55.0697 18.1298,-55.0697 C18.1298,-39.5272 0.774039,-39.7863 0.774039,-39.7863 Z M65.5345,57.8725 L54.1367,61.7582 L57.5042,41.2939 L65.7936,41.2939 L65.5345,57.8725 L65.5345,57.8725 Z M65.5345,34.0407 L55.6909,36.6311 L49.2149,21.8657 C50.5101,21.8657 65.5345,17.721 65.5345,17.721 C65.5345,17.721 65.5345,34.0407 65.5345,34.0407 Z M67.8659,57.8725 L69.1611,41.0348 L76.6733,37.6673 L81.8542,53.7279 L67.8659,57.8725 Z M80.2999,31.1912 L67.8659,34.8178 L72.7877,17.203 L85.9988,17.203 L80.2999,31.1912 Z" fill="#f3804b" fill-opacity="1" />
	</g>
</svg>