<?xml version="1.0" encoding="utf-8" ?>
<!-- Generator: Assembly 1.0 - http://assemblyapp.co -->
<svg version="1.1" xmlns="http://www.w3.org/2000/svg" xmlns:xlink="http://www.w3.org/1999/xlink" width="300" height="300" viewBox="0 0 300 300">
	<g id="widget" transform="matrix(1,0,0,1,150,150)">
		<path d="M-71.8813,-48.0236 C-74.5485,-47.5386 -77.9432,-46.8112 -82.3077,-44.144 C-92.0066,-38.3247 -108.01,-21.8365 -108.01,21.5661 C-108.01,67.636 -95.4012,82.9117 -87.8846,88.0037 C-83.52,90.9133 -79.1555,91.3983 -76.0034,90.9133 C-83.0351,77.3349 -89.0969,54.2999 -89.0969,15.2618 C-89.0969,-14.5623 -81.8227,-35.1725 -71.8813,-48.0236 Z M47.1728,-58.6924 C38.6862,-61.1171 30.9271,-59.4198 26.5626,-54.0854 C30.1997,-48.266 33.3518,-40.9919 35.5341,-32.0204 L52.7497,2.1683 L40.1411,2.1683 C40.3836,7.26023 40.626,12.5946 40.626,18.1715 C40.626,29.8102 40.1411,40.2365 39.4137,49.208 L42.8083,55.7548 L49.5975,44.601 C49.5975,44.601 58.3265,60.1193 47.9002,71.5155 C43.5357,64.7263 37.7164,69.8182 36.2615,71.0306 C34.5642,79.5171 32.1395,86.3064 29.7148,91.6408 C30.1997,97.2176 39.8986,104.249 50.5674,104.249 C53.7196,104.249 82.5738,101.582 82.5738,15.2618 C82.3313,-31.5354 64.1459,-53.8429 47.1728,-58.6924 Z M82.0889,-44.144 C77.9668,-46.8112 74.3297,-47.7811 71.6625,-48.0236 C81.6039,-35.1725 88.8781,-14.3199 88.8781,15.2618 C88.8781,54.2999 83.0588,77.3349 75.7846,90.9133 C78.9367,91.3983 83.3012,90.6709 87.6658,88.0037 C95.1824,83.1542 107.791,67.8784 107.791,21.5661 C107.549,-21.594 91.5453,-38.3247 82.0889,-44.144 Z M12.2567,-66.4515 C8.61962,-92.881 29.7148,-98.4579 29.7148,-98.4579 C29.7148,-98.4579 23.168,-104.52 20.2583,-107.429 C5.46747,-103.55 -9.08089,-89.7289 -11.7481,-66.209 C-4.71638,-69.1187 2.31533,-69.1187 12.2567,-66.4515 Z M-36.4803,71.758 C-36.4803,71.758 -43.512,64.2413 -48.604,71.758 C-59.2728,60.3618 -50.3013,44.8435 -50.3013,44.8435 L-43.512,55.9973 L-39.8749,49.208 C-40.8448,40.479 -41.0873,30.2951 -41.0873,18.6564 C-41.0873,13.0796 -40.8448,7.74517 -40.6024,2.65324 L-53.2109,2.65324 L-35.9954,-32.0204 C-33.5706,-40.7494 -30.661,-48.266 -27.0239,-54.0854 C-31.6309,-59.1773 -39.39,-61.1171 -47.6341,-58.6924 C-64.8496,-53.8429 -83.2776,-31.5354 -83.2776,15.5043 C-83.2776,102.067 -54.6658,104.492 -51.2712,104.492 C-40.6024,104.492 -30.9034,97.7026 -30.4185,91.8832 C-32.3583,86.5488 -34.5405,79.7596 -36.4803,71.758 L-36.4803,71.758 Z M26.3201,63.5139 L17.5911,74.1827 L7.64973,64.2413 L-0.351873,73.6978 L-0.351873,74.1827 L-0.594346,73.9402 L-0.836819,74.1827 L-0.836819,73.6978 L-8.83842,64.2413 L-18.7798,74.1827 L-27.5088,63.5139 L-31.1459,66.9085 C-23.8717,106.432 -7.38358,106.432 -0.351873,106.432 C6.67984,106.432 23.168,106.432 30.4422,67.151 L26.3201,63.5139 Z M-16.3551,2.1683 L-34.2981,2.1683 C-34.5405,7.01775 -34.783,12.5946 -34.783,18.1715 C-34.783,29.8102 -34.2981,39.7516 -33.5706,48.2381 L-26.054,55.2698 L-18.5373,44.1161 L-7.86853,55.2698 L-0.594346,44.601 L-0.594346,44.3586 L-0.351873,44.601 L-0.1094,44.3586 L-0.1094,44.8435 L7.16478,55.5123 L17.8336,44.3586 L25.3502,55.5123 L33.3518,47.9957 C34.0793,39.2666 34.3217,29.5677 34.3217,17.929 C34.3217,12.1097 34.0793,7.01775 33.8368,1.92582 L15.8938,1.92582 L30.1997,-26.686 C26.5626,-43.4166 20.9857,-52.6306 15.8938,-57.2375 C9.10457,-63.7843 2.5578,-63.5418 0.375545,-63.2994 L-0.351873,-63.2994 L-1.07929,-63.2994 C-3.26155,-63.2994 -9.80831,-63.7843 -16.5975,-57.2375 C-21.447,-52.3881 -27.2664,-43.4166 -30.9034,-26.686 L-16.3551,2.1683 Z M-0.1094,8.95754 L9.58951,28.1129 L-9.56584,28.1129 L-0.1094,8.95754 Z" fill="#e55a5a" fill-opacity="1" />
	</g>
</svg>